<?xml version="1.0" encoding="UTF-8" standalone="no"?>
<!-- Created with Inkscape (http://www.inkscape.org/) -->

<svg
   xmlns:dc="http://purl.org/dc/elements/1.1/"
   xmlns:cc="http://creativecommons.org/ns#"
   xmlns:rdf="http://www.w3.org/1999/02/22-rdf-syntax-ns#"
   xmlns:svg="http://www.w3.org/2000/svg"
   xmlns="http://www.w3.org/2000/svg"
   xmlns:sodipodi="http://sodipodi.sourceforge.net/DTD/sodipodi-0.dtd"
   xmlns:inkscape="http://www.inkscape.org/namespaces/inkscape"
   width="1268.7516"
   height="959.64496"
   id="svg5059"
   version="1.1"
   inkscape:version="0.48.4 r9939"
   sodipodi:docname="BlockTransmission.svg">
  <defs
     id="defs5061">
    <path
       transform="matrix(10,0,0,-10,260,260)"
       id="p"
       d="M 2.8117,-1.046 A 3,3 0 0 1 0.5,2.958 V 4.5119 A 10.5,10.5 0 0 1 2,25.3078 v 0.5583 A 15,15 0 0 0 14.7975,8.5433 15,15 0 0 0 23.4007,-11.201 l -0.4835,0.2792 A 10.5,10.5 0 0 1 4.1574,-1.8229 z m 3.4148,8.871 a 10,10 0 0 1 -12.453,0 9.5,9.5 0 0 0 -2.1756,2.7417 13.5,13.5 0 0 0 16.8042,0 A 10,10 0 0 0 6.2265,7.825 z"
       inkscape:connector-curvature="0" />
    <path
       transform="scale(10,-10) translate(26,-26)"
       id="p-5"
       d="M 2.8117,-1.046 A 3 3 0 0 1 .5,2.958 V 4.5119 A 10.5 10.5 0 0 1 2,25.3078 V 25.8661 A 15 15 0 0 0 14.7975,8.5433 15 15 0 0 0 23.4007,-11.201 L 22.9172,-10.9218 A 10.5 10.5 0 0 1 4.1574,-1.8229 z M 6.2265,7.825 A 10 10 0 0 1 -6.2265,7.825 9.5 9.5 0 0 0 -8.4021,10.5667 13.5 13.5 0 0 0 8.4021,10.5667 10 10 0 0 0 6.2265,7.825 z" />
  </defs>
  <sodipodi:namedview
     id="base"
     pagecolor="#ffffff"
     bordercolor="#666666"
     borderopacity="1.0"
     inkscape:pageopacity="0.0"
     inkscape:pageshadow="2"
     inkscape:zoom="0.35"
     inkscape:cx="1062.927"
     inkscape:cy="247.69174"
     inkscape:document-units="px"
     inkscape:current-layer="layer1"
     showgrid="false"
     inkscape:window-width="1600"
     inkscape:window-height="848"
     inkscape:window-x="0"
     inkscape:window-y="24"
     inkscape:window-maximized="1"
     fit-margin-top="0"
     fit-margin-left="0"
     fit-margin-right="0"
     fit-margin-bottom="0" />
  <metadata
     id="metadata5064">
    <rdf:RDF>
      <cc:Work
         rdf:about="">
        <dc:format>image/svg+xml</dc:format>
        <dc:type
           rdf:resource="http://purl.org/dc/dcmitype/StillImage" />
        <dc:title></dc:title>
      </cc:Work>
    </rdf:RDF>
  </metadata>
  <g
     inkscape:label="Layer 1"
     inkscape:groupmode="layer"
     id="layer1"
     transform="translate(258.59906,8.2979956)">
    <rect
       style="fill:#000000;fill-opacity:0.36470588;stroke:none"
       id="rect5086"
       width="1268.7516"
       height="959.64496"
       x="-258.59906"
       y="-8.2979956"
       rx="100.00043"
       inkscape:export-filename="/media/kokamoto/Storage/TeachingApp/givemefever_prototype/images/ParticipantInterventions/BlockTransmission.png"
       inkscape:export-xdpi="49.987236"
       inkscape:export-ydpi="49.987236" />
    <g
       id="g5665"
       transform="matrix(0.96024465,0,0,1.4264264,108.65333,129.91024)"
       inkscape:export-filename="/media/kokamoto/Storage/TeachingApp/givemefever_prototype/images/ParticipantInterventions/BlockTransmission.png"
       inkscape:export-xdpi="49.987236"
       inkscape:export-ydpi="49.987236">
      <text
         xml:space="preserve"
         style="font-size:20px;font-style:normal;font-variant:normal;font-weight:normal;font-stretch:normal;line-height:125%;letter-spacing:0px;word-spacing:0px;fill:#000000;fill-opacity:1;stroke:none;font-family:Times;-inkscape-font-specification:Ubuntu"
         x="-246.18672"
         y="556.80829"
         id="text5670"
         sodipodi:linespacing="125%"
         inkscape:export-filename="/media/kokamoto/Storage/TeachingApp/givemefever_prototype/images/ParticipantInterventions/BlockTransmission.png"
         inkscape:export-xdpi="61.423462"
         inkscape:export-ydpi="61.423462"><tspan
           sodipodi:role="line"
           x="-246.18672"
           y="556.80829"
           style="font-size:128.16682434px;font-style:normal;font-family:Ubuntu;-inkscape-font-specification:Ubuntu"
           id="tspan6179">Block transmission</tspan></text>
      <path
         sodipodi:type="arc"
         style="fill:#ffffff;fill-opacity:1;stroke:#000000;stroke-width:41.66666794;stroke-miterlimit:4;stroke-opacity:1;stroke-dasharray:none"
         id="path6183"
         sodipodi:cx="2062.7314"
         sodipodi:cy="197.98993"
         sodipodi:rx="244.45692"
         sodipodi:ry="224.25386"
         d="m 2307.1884,197.98993 c 0,123.85199 -109.4471,224.25386 -244.457,224.25386 -135.0098,0 -244.4569,-100.40187 -244.4569,-224.25386 0,-123.851988 109.4471,-224.253861 244.4569,-224.253861 135.0099,0 244.457,100.401873 244.457,224.253861 z"
         transform="matrix(1.2496816,0,0,0.84126317,-2305.8866,-17.009663)"
         inkscape:export-filename="/media/kokamoto/Storage/TeachingApp/givemefever_prototype/images/ParticipantInterventions/BlockTransmission.png"
         inkscape:export-xdpi="61.423462"
         inkscape:export-ydpi="61.423462" />
      <text
         xml:space="preserve"
         style="font-size:20.50669289px;font-style:normal;font-variant:normal;font-weight:normal;font-stretch:normal;line-height:125%;letter-spacing:0px;word-spacing:0px;fill:#000000;fill-opacity:1;stroke:none;font-family:Times;-inkscape-font-specification:Times"
         x="32.264587"
         y="-148.65201"
         id="text6693"
         sodipodi:linespacing="125%"
         transform="matrix(0,0.82047674,-1.2188036,0,0,0)"
         inkscape:export-filename="/media/kokamoto/Storage/TeachingApp/givemefever_prototype/images/ParticipantInterventions/BlockTransmission.png"
         inkscape:export-xdpi="61.423462"
         inkscape:export-ydpi="61.423462"><tspan
           sodipodi:role="line"
           id="tspan6695"
           x="32.264587"
           y="-148.65201"
           style="font-size:307.60037231px;fill:#000000;fill-opacity:1">:</tspan></text>
      <path
         style="fill:none;stroke:#000000;stroke-width:21.36113755;stroke-linecap:butt;stroke-linejoin:miter;stroke-opacity:1;stroke-miterlimit:4;stroke-dasharray:none"
         d="M 415.04507,148.34908 537.07408,81.781155"
         id="path2993"
         inkscape:connector-curvature="0"
         inkscape:export-filename="/media/kokamoto/Storage/TeachingApp/givemefever_prototype/images/ParticipantInterventions/BlockTransmission.png"
         inkscape:export-xdpi="61.423462"
         inkscape:export-ydpi="61.423462" />
      <path
         style="fill:none;stroke:#000000;stroke-width:21.36113739;stroke-linecap:butt;stroke-linejoin:miter;stroke-miterlimit:4;stroke-opacity:1;stroke-dasharray:none"
         d="M 134.06221,145.45949 -5.8503649,66.852657"
         id="path2993-3"
         inkscape:connector-curvature="0"
         inkscape:export-filename="/media/kokamoto/Storage/TeachingApp/givemefever_prototype/images/ParticipantInterventions/BlockTransmission.png"
         inkscape:export-xdpi="61.423462"
         inkscape:export-ydpi="61.423462" />
      <path
         style="fill:none;stroke:#000000;stroke-width:21.36113739;stroke-linecap:butt;stroke-linejoin:miter;stroke-miterlimit:4;stroke-opacity:1;stroke-dasharray:none"
         d="m 25.708869,283.39613 93.625701,-33.284"
         id="path2993-1"
         inkscape:connector-curvature="0"
         inkscape:export-filename="/media/kokamoto/Storage/TeachingApp/givemefever_prototype/images/ParticipantInterventions/BlockTransmission.png"
         inkscape:export-xdpi="61.423462"
         inkscape:export-ydpi="61.423462" />
      <path
         style="fill:none;stroke:#000000;stroke-width:21.36113739;stroke-linecap:butt;stroke-linejoin:miter;stroke-miterlimit:4;stroke-opacity:1;stroke-dasharray:none"
         d="M 507.51304,284.20391 422.30313,254.46076"
         id="path2993-1-3"
         inkscape:connector-curvature="0"
         inkscape:export-filename="/media/kokamoto/Storage/TeachingApp/givemefever_prototype/images/ParticipantInterventions/BlockTransmission.png"
         inkscape:export-xdpi="61.423462"
         inkscape:export-ydpi="61.423462" />
      <rect
         style="fill:none;fill-opacity:1;stroke:#000000;stroke-opacity:1;stroke-width:21.36113755;stroke-miterlimit:4;stroke-dasharray:none"
         id="rect3038"
         width="319.80014"
         height="138.51665"
         x="109.86682"
         y="138.22125"
         rx="35.583939"
         inkscape:export-filename="/media/kokamoto/Storage/TeachingApp/givemefever_prototype/images/ParticipantInterventions/BlockTransmission.png"
         inkscape:export-xdpi="61.423462"
         inkscape:export-ydpi="61.423462" />
    </g>
  </g>
</svg>
