<?xml version="1.0" encoding="UTF-8" standalone="no"?>
<!-- Created with Inkscape (http://www.inkscape.org/) -->

<svg
   xmlns:dc="http://purl.org/dc/elements/1.1/"
   xmlns:cc="http://creativecommons.org/ns#"
   xmlns:rdf="http://www.w3.org/1999/02/22-rdf-syntax-ns#"
   xmlns:svg="http://www.w3.org/2000/svg"
   xmlns="http://www.w3.org/2000/svg"
   xmlns:sodipodi="http://sodipodi.sourceforge.net/DTD/sodipodi-0.dtd"
   xmlns:inkscape="http://www.inkscape.org/namespaces/inkscape"
   width="1268.7516"
   height="959.64496"
   id="svg5059"
   version="1.1"
   inkscape:version="0.48.4 r9939"
   sodipodi:docname="Medication.svg">
  <defs
     id="defs5061">
    <path
       transform="matrix(10,0,0,-10,260,260)"
       id="p"
       d="M 2.8117,-1.046 A 3,3 0 0 1 0.5,2.958 V 4.5119 A 10.5,10.5 0 0 1 2,25.3078 v 0.5583 A 15,15 0 0 0 14.7975,8.5433 15,15 0 0 0 23.4007,-11.201 l -0.4835,0.2792 A 10.5,10.5 0 0 1 4.1574,-1.8229 z m 3.4148,8.871 a 10,10 0 0 1 -12.453,0 9.5,9.5 0 0 0 -2.1756,2.7417 13.5,13.5 0 0 0 16.8042,0 A 10,10 0 0 0 6.2265,7.825 z"
       inkscape:connector-curvature="0" />
    <path
       transform="scale(10,-10) translate(26,-26)"
       id="p-5"
       d="M 2.8117,-1.046 A 3 3 0 0 1 .5,2.958 V 4.5119 A 10.5 10.5 0 0 1 2,25.3078 V 25.8661 A 15 15 0 0 0 14.7975,8.5433 15 15 0 0 0 23.4007,-11.201 L 22.9172,-10.9218 A 10.5 10.5 0 0 1 4.1574,-1.8229 z M 6.2265,7.825 A 10 10 0 0 1 -6.2265,7.825 9.5 9.5 0 0 0 -8.4021,10.5667 13.5 13.5 0 0 0 8.4021,10.5667 10 10 0 0 0 6.2265,7.825 z" />
  </defs>
  <sodipodi:namedview
     id="base"
     pagecolor="#ffffff"
     bordercolor="#666666"
     borderopacity="1.0"
     inkscape:pageopacity="0.0"
     inkscape:pageshadow="2"
     inkscape:zoom="0.35"
     inkscape:cx="557.21271"
     inkscape:cy="247.69174"
     inkscape:document-units="px"
     inkscape:current-layer="g5665"
     showgrid="false"
     inkscape:window-width="1600"
     inkscape:window-height="848"
     inkscape:window-x="0"
     inkscape:window-y="24"
     inkscape:window-maximized="1"
     fit-margin-top="0"
     fit-margin-left="0"
     fit-margin-right="0"
     fit-margin-bottom="0" />
  <metadata
     id="metadata5064">
    <rdf:RDF>
      <cc:Work
         rdf:about="">
        <dc:format>image/svg+xml</dc:format>
        <dc:type
           rdf:resource="http://purl.org/dc/dcmitype/StillImage" />
        <dc:title></dc:title>
      </cc:Work>
    </rdf:RDF>
  </metadata>
  <g
     inkscape:label="Layer 1"
     inkscape:groupmode="layer"
     id="layer1"
     transform="translate(258.59906,8.2979956)">
    <rect
       style="fill:#000000;fill-opacity:0.36470588;stroke:none"
       id="rect5086"
       width="1268.7516"
       height="959.64496"
       x="-258.59906"
       y="-8.2979956"
       rx="100.00043"
       inkscape:export-filename="/media/kokamoto/Storage/TeachingApp/givemefever_prototype/images/ParticipantInterventions/BlockTransmission.png"
       inkscape:export-xdpi="49.987236"
       inkscape:export-ydpi="49.987236" />
    <g
       id="g5665"
       transform="matrix(0.96024465,0,0,1.4264264,108.65333,129.91024)"
       inkscape:export-filename="/media/kokamoto/Storage/TeachingApp/givemefever_prototype/images/ParticipantInterventions/BlockTransmission.png"
       inkscape:export-xdpi="49.987236"
       inkscape:export-ydpi="49.987236">
      <text
         xml:space="preserve"
         style="font-size:20px;font-style:normal;font-variant:normal;font-weight:normal;font-stretch:normal;line-height:125%;letter-spacing:0px;word-spacing:0px;fill:#000000;fill-opacity:1;stroke:none;font-family:Times;-inkscape-font-specification:Ubuntu"
         x="-98.307388"
         y="556.80829"
         id="text5670"
         sodipodi:linespacing="125%"
         inkscape:export-filename="/media/kokamoto/Storage/TeachingApp/givemefever_prototype/images/ParticipantInterventions/BlockTransmission.png"
         inkscape:export-xdpi="61.423462"
         inkscape:export-ydpi="61.423462"><tspan
           sodipodi:role="line"
           x="-98.307388"
           y="556.80829"
           style="font-size:128.16682434px;font-style:normal;font-family:Ubuntu;-inkscape-font-specification:Ubuntu"
           id="tspan6179">Try medication</tspan></text>
      <g
         id="g3388"
         transform="matrix(2.343153,0,0,1.5773685,19.274865,-12.602256)">
        <g
           id="g3028"
           style="fill:#386666">
          <path
             d="m 101.43,56.439 c 3.715,3.604 8.547,5.822 12.575,9.101 4.04,3.289 6.592,9.969 11.253,4.467 -5.627,-7.172 -13.169,-10.917 -20.021,-16.547 0.275,0.331 0.551,0.662 0.826,0.993 -1.61,0.399 -3.023,1.59 -4.633,1.986 1.336,1.672 -0.041,0.638 0,0"
             id="path3"
             inkscape:connector-curvature="0" />
          <path
             d="m 103.25,52.137 c -0.659,-0.924 -1.678,-1.678 -2.482,-2.482 -0.174,2.311 -0.09,4.608 0.663,6.785 4.547,-0.982 6.801,-6.287 1.82,-9.267 0.661,0.923 1.677,1.677 2.482,2.482 0.06,-5.014 -3.539,-1.693 -2.483,2.482"
             id="path5"
             inkscape:connector-curvature="0" />
          <path
             d="m 73.963,52.137 h 18.979 9.489 c 1.366,0 1.506,-4.229 0.82,-4.964 -1.819,-1.952 -16.237,0 -18.979,0 -5.312,-9.99e-4 -12.037,-2.478 -10.309,4.964"
             id="path7"
             inkscape:connector-curvature="0" />
          <path
             d="m 47.323,49.654 c -0.923,0.663 -1.677,1.677 -2.482,2.482 h 16.738 c 6.255,0 12.384,2.771 12.384,-4.188 0,-0.598 -28.527,-3.36 -31.604,1.706 0.923,-0.661 1.677,-1.677 2.482,-2.482 -5.014,-0.061 -1.692,3.538 2.482,2.482"
             id="path9"
             inkscape:connector-curvature="0" />
          <path
             d="m 45.833,57.433 c 5.329,-6.346 -3.553,-12.166 -3.804,-2.979 0.275,-0.331 0.551,-0.662 0.826,-0.993 0.869,1.757 2.41,3.368 3.477,3.475 0.94,-1.401 -0.352,0.471 -0.499,0.497"
             id="path11"
             inkscape:connector-curvature="0" />
          <path
             d="m 45.833,57.433 c -0.992,-1.324 -1.984,-2.649 -2.978,-3.972 0.869,1.757 2.41,3.368 3.477,3.475 0.94,-1.401 -0.352,0.471 -0.499,0.497"
             id="path13"
             inkscape:connector-curvature="0" />
          <path
             d="m 26.806,72.985 c 5.116,-6.729 12.248,-10.767 19.027,-15.552 -0.506,-1.162 -1.999,-3.169 -2.978,-3.972 -6.852,5.63 -14.395,9.375 -20.021,16.547 1.229,0.921 2.571,2.365 3.972,2.977"
             id="path15"
             inkscape:connector-curvature="0" />
          <path
             d="m 20.021,101.28 c 0.415,-9.765 -0.039,-20.594 6.784,-28.295 -9.017,-10.791 -11.542,23.42 -11.749,28.295 1.592,0 3.4,0.263 4.965,0"
             id="path17"
             inkscape:connector-curvature="0" />
          <path
             d="m 20.849,184.68 c -0.153,-15.386 -0.305,-30.772 -0.458,-46.158 -0.096,-9.616 -0.191,-19.233 -0.286,-28.849 -0.051,-5.098 1.912,-9.982 -5.048,-8.389 0.153,15.386 0.305,30.772 0.458,46.158 0.096,9.616 0.191,19.232 0.286,28.849 0.051,5.098 -1.911,9.983 5.048,8.389"
             id="path19"
             inkscape:connector-curvature="0" />
          <path
             d="m 32.929,202.22 c -4.181,-1.463 -7.698,-4.912 -9.763,-8.771 -2.433,-4.545 -0.507,-10.367 -7.281,-8.771 0.23,9.938 6.309,17.869 15.057,22.173 0.629,-1.467 1.647,-3.077 1.987,-4.631"
             id="path21"
             inkscape:connector-curvature="0" />
          <path
             d="m 73.963,209.5 c -7.979,0.151 -15.987,-0.597 -23.828,-1.988 -3.838,-0.68199 -7.435,-1.479 -11.085,-2.812 -4.187,-1.527 -7.073,-4.145 -8.109,2.151 7.698,3.185 15.389,5.336 23.662,6.452 4.071,0.54901 8.142,0.836 12.245,0.99501 4.651,0.18199 8.547,1.525 7.115,-4.798"
             id="path23"
             inkscape:connector-curvature="0" />
          <path
             d="m 115.16,202.22 c -6.773,2.852 -13.415,5.144 -20.764,6.121 -3.619,0.481 -7.225,0.855 -10.871,1.037 -3.68,0.18399 -9.566,-1.577 -9.566,2.603 0,8.036 37.463,-2.761 43.187,-5.129 -0.612,-1.428 -1.06,-3.396 -1.986,-4.632"
             id="path25"
             inkscape:connector-curvature="0" />
          <path
             d="m 127.08,184.68 c -0.10001,4.177 -1.269,8.701 -4.198,11.854 -3.573,3.844 -9.81,4.766 -5.73,10.319 5.093,-2.505 9.378,-6.057 12.079,-11.086 2.269,-4.226 5.986,-13.095 -2.151,-11.087"
             id="path27"
             inkscape:connector-curvature="0" />
          <path
             d="m 127.91,101.28 c -0.276,27.799 -0.55199,55.598 -0.829,83.396 6.959,1.594 4.997,-3.292 5.047,-8.39 0.096,-9.616 0.19099,-19.232 0.286,-28.849 0.15201,-15.386 0.306,-30.772 0.45801,-46.158 -1.542,0.001 -3.465,-0.34 -4.962,0.001"
             id="path29"
             inkscape:connector-curvature="0" />
          <path
             d="m 121.29,72.985 c 3.564,4.646 5.028,8.897 5.792,14.728 0.76099,5.812 -2.174,14.927 5.791,13.567 -0.211,-4.945 -2.588,-38.884 -11.583,-28.295"
             id="path31"
             inkscape:connector-curvature="0" />
        </g>
        <g
           id="g3045"
           style="fill-rule:evenodd">
          <path
             d="m 129.56,184.68 c 0.681,25.147 -36.977,27.302 -54.654,27.302 -18.698,0 -55.885,-1.521 -56.54,-27.302 h 111.19"
             id="path33"
             inkscape:connector-curvature="0"
             style="fill:#70adbf" />
          <g
             id="g3048"
             style="fill:#c1dde5">
            <path
               d="m 73.963,201.06 c 13.269,-0.299 51.161,0.477 55.598,-16.381 2.694,-10.234 0.243,-24.506 0.347,-35.022 0.151,-15.236 0.302,-30.471 0.45299,-45.707 0.082,-8.304 0.35001,-18.275 -3.034,-25.998 -4.055,-9.255 -12.713,-14.919 -20.684,-20.435 -7.901,-5.467 -23.979,-2.497 -33.509,-2.39 -12.825,0.143 -25.209,-2.27 -35.928,5.096 -13.194,9.066 -18.75,19.42 -19.423,35.299 -0.824,19.453 0.086,39.047 0.28,58.51 0.131,13.21 -4.898,31.6 8.411,39.252 13.771,7.917 32.101,7.776 47.489,7.776"
               id="path35"
               inkscape:connector-curvature="0" />
            <path
               d="m 73.963,49.654 h 16.833 c 3.985,0 12.455,-2.27 12.455,2.482 0,6.626 8.27,10.62 13.32,13.651 5.893,3.537 -7.708,8.342 -9.833,8.901 -10.481,2.76 -21.288,3.26 -32.086,3.26 -5.88,0 -48.286,-1.636 -43.544,-11.914 0.72,-1.56 5.751,-3.87 7.084,-4.736 3.995,-2.596 4.453,-4.834 6.648,-8.335 0.722,-1.152 -1.123,-3.31 0.815,-3.31 h 9.436 c 6.291,9.99e-4 12.582,9.99e-4 18.872,9.99e-4"
               id="path37"
               inkscape:connector-curvature="0" />
          </g>
          <path
             d="m 47.819,62.23 c -24.835,0.59 -25.25,29.998 -25.124,47.556 0.094,12.949 0.189,25.897 0.287,38.845 0.051,6.822 -2.286,20.26 3.988,25.289 7.777,6.234 10.274,-4.054 10.245,-10.031 -0.077,-15.424 -0.153,-30.847 -0.23,-46.27 -0.047,-9.505 -0.842,-19.521 1.072,-28.915 1.002,-4.919 13.556,-24.017 9.762,-26.474"
             id="path39"
             inkscape:connector-curvature="0"
             style="fill:#ffffff" />
          <path
             d="m 112.35,62.893 c -2.786,-1.719 -6.09,-3.591 -7.942,-6.371 -0.539,-0.809 -1.703,-6.867 -1.371,-6.867 H 73.962 45.05 c 0,0 -0.502,5.312 -0.873,6.123 -1.456,3.186 -5.612,5.373 -8.439,7.115 5.17,-2.555 13.03,-6.227 18.699,-3.393 6.041,3.021 13.537,3.615 20.186,3.393 12.887,-0.431 25.675,-8.169 37.727,0"
             id="path41"
             inkscape:connector-curvature="0"
             style="fill:#4293aa" />
          <path
             d="m 97.791,59.417 c 8.279,-0.216 17.502,7.965 22.668,13.651 7.625,8.393 6.619,21.128 6.619,31.652 0,11.366 -0.15501,22.733 -0.241,34.098 -0.068,9.071 2.681,23.641 -1.745,31.959 -4.731,8.892 -12.613,4.054 -12.57,-4.491 0.073,-14.861 0.146,-29.723 0.21999,-44.585 0.053,-10.598 0.736,-21.366 -0.881,-31.88 -0.783,-5.092 -2.686,-9.425 -5.575,-13.676 -2.291,-3.371 -8.953,-9.739 -9.324,-13.75 -0.167,-1.809 -0.425,-1.718 0.829,-2.978"
             id="path43"
             inkscape:connector-curvature="0"
             style="fill:#8ec1ce" />
        </g>
        <g
           id="g3055"
           style="fill:#386666">
          <path
             d="m 43.353,45.683 c 1.548,-4.843 8.411,-6.069 12.741,-7.114 3.759,-0.908 7.552,-1.553 11.417,-1.82 1.96,-0.135 11.467,-0.284 6.619,-5.13 -2.438,-2.438 -17.385,1.472 -20.353,2.4 -5.979,1.869 -14.641,4.14 -15.388,11.665 1.556,-9.99e-4 3.447,0.321 4.964,-9.99e-4"
             id="path45"
             inkscape:connector-curvature="0" />
          <path
             d="m 74.129,54.122 c -7.089,0.136 -14.652,-0.427 -21.512,-2.316 -5.45,-1.5 -9.212,-7.089 -14.229,-6.123 0.067,7.406 9.814,10.238 15.553,11.583 3.833,0.898 7.811,1.179 11.717,1.569 4.846,0.485 10.004,1.921 8.471,-4.713"
             id="path47"
             inkscape:connector-curvature="0" />
          <path
             d="m 104.74,45.683 c -1.022,5.008 -8.013,6.037 -12.162,6.867 -3.571,0.715 -7.203,1.179 -10.84,1.407 -2.12,0.132 -12.498,-0.2 -7.61,5.129 2.253,2.457 18.924,-1.271 22.007,-2.233 5.418,-1.692 13.585,-4.08 13.567,-11.169 -1.559,-9.99e-4 -3.44,-0.316 -4.962,-9.99e-4"
             id="path49"
             inkscape:connector-curvature="0" />
          <path
             d="m 74.129,36.583 c 7.227,-0.153 14.565,0.829 21.511,2.813 5.677,1.623 8.616,7.115 14.063,6.288 C 108.944,38.038 99.402,35.171 93.158,33.605 89.379,32.657 85.592,32.277 81.728,31.871 76.935,31.365 72.76,30.236 74.129,36.583"
             id="path51"
             inkscape:connector-curvature="0" />
        </g>
        <g
           id="g3061"
           style="fill-rule:evenodd">
          <path
             d="m 74.129,34.1 c -7.738,-0.156 -31.679,0.434 -33.177,11.004 -1.627,11.48 26.603,11.493 33.177,11.5 7.8,0.007 31.431,0.683 33.011,-10.342 C 108.741,35.091 80.789,33.969 74.129,34.1"
             id="path53"
             inkscape:connector-curvature="0"
             style="fill:#c1dde5" />
          <path
             d="m 73.633,54.122 c 5.021,0.168 30.798,-0.601 29.288,-9.1 -6.484,7.125 -19.378,7.115 -28.344,7.115 -9.071,0 -23.797,0.638 -30.232,-7.115 -1.264,8.639 24.147,9.272 29.288,9.1"
             id="path55"
             inkscape:connector-curvature="0"
             style="fill:#4293aa" />
          <path
             d="M 103.25,41.878 C 100.108,50.55 81.188,49.727 73.962,49.654 66.956,49.583 47.71,50.508 44.839,41.878 h 58.411"
             id="path57"
             inkscape:connector-curvature="0"
             style="fill:#164c4c" />
        </g>
        <g
           id="g3066"
           style="fill:#386666">
          <path
             d="M 40.373,11.597 C 44.882,8.106 51.602,7.483 57.086,6.799 60.33,6.394 63.585,6.135 66.848,5.972 c 2.118,-0.106 4.218,-0.166 6.337,-0.166 1.328,0 1.778,-4.104 0.944,-4.963 C 71.822,-1.535 55.6,1.814 52.204,2.415 46.898,3.353 36.296,4.836 35.41,11.598 c 1.566,-9.99e-4 3.434,0.307 4.963,-9.99e-4"
             id="path59"
             inkscape:connector-curvature="0" />
          <path
             d="M 40.373,37.907 V 20.439 c 0,-1.645 1.141,-14.256 -4.962,-8.842 -1.758,1.559 0,15.029 0,17.468 0,5.086 -2.069,10.553 4.962,8.842"
             id="path61"
             inkscape:connector-curvature="0" />
          <path
             d="M 74.129,43.864 C 67.004,43.991 59.877,43.361 52.866,42.126 47.246,41.137 40.981,37.003 35.41,37.907 c 0.965,7.373 13.331,8.621 18.973,9.56 3.806,0.634 7.667,0.977 11.521,1.152 4.823,0.219 9.744,1.958 8.225,-4.755"
             id="path63"
             inkscape:connector-curvature="0" />
          <path
             d="m 107.88,37.907 c -4.42,3.611 -11.419,4.212 -16.877,4.963 -2.82,0.388 -22.595,0.068 -16.877,5.958 2.443,2.516 18.447,-1.124 21.924,-1.738 5.32,-0.939 15.899,-2.384 16.794,-9.183 -1.565,0 -3.435,-0.308 -4.964,0"
             id="path65"
             inkscape:connector-curvature="0" />
          <path
             d="m 107.88,11.597 v 17.468 c 0,1.645 -1.141,14.258 4.964,8.842 1.758,-1.56 0,-15.029 0,-17.468 0,-5.088 2.068,-10.553 -4.964,-8.842"
             id="path67"
             inkscape:connector-curvature="0" />
          <path
             d="m 74.129,5.805 c 7.039,-0.126 14.325,0.35 21.263,1.572 5.918,1.043 11.615,4.735 17.456,4.219 C 111.896,4.367 99.47,2.672 93.831,2.078 90.007,1.676 86.194,1.224 82.353,1.049 77.532,0.831 72.611,-0.905 74.129,5.805"
             id="path69"
             inkscape:connector-curvature="0" />
        </g>
        <g
           id="g3074"
           style="fill-rule:evenodd">
          <path
             d="m 110.37,37.907 c -3.332,10.008 -30.642,8.439 -38.933,8.439 -9.083,0 -33.54,0.627 -33.54,-11.759 0,-5.425 -3.503,-22.99 2.994,-22.99 h 36.566 32.131 c 1.663,0 0.782,22.992 0.782,26.31"
             id="path71"
             inkscape:connector-curvature="0"
             style="fill:#4293aa" />
          <g
             id="g3077"
             style="fill:#bfc6d6">
            <path
               d="m 73.138,46.346 c 3.699,0.363 1.819,-28.564 1.819,-33.256 0,-1.662 -1.819,-2.328 -1.819,-0.81 v 10.311 23.755"
               id="path73"
               inkscape:connector-curvature="0" />
            <path
               d="m 68.669,46.18 c 3.583,0.275 1.82,-29.416 1.82,-34.408 0,-0.575 -1.82,-0.302 -1.82,1.311 V 24.606 46.18"
               id="path75"
               inkscape:connector-curvature="0" />
            <path
               d="m 64.366,46.014 c 3.58,0.254 1.82,-29.25 1.82,-34.243 0,-0.569 -1.82,-0.307 -1.82,1.305 v 11.467 21.471"
               id="path77"
               inkscape:connector-curvature="0" />
            <path
               d="m 59.898,45.683 c 0.658,0.082 1.177,-0.038 1.82,0.167 0,-4.202 0.961,-34.253 -0.91,-34.253 -1.872,0 -0.91,29.9 -0.91,34.086"
               id="path79"
               inkscape:connector-curvature="0" />
            <path
               d="m 55.595,45.021 c 0.588,0.143 1.208,0.234 1.821,0.331 0,-4.155 0.963,-33.756 -0.911,-33.756 -1.873,10e-4 -0.91,29.301 -0.91,33.425"
               id="path81"
               inkscape:connector-curvature="0" />
            <path
               d="m 51.129,44.359 c 0.609,0.151 1.206,0.211 1.821,0.331 V 29.222 c 0,-3.008 1.956,-15.295 0,-17.625 -1.966,-2.341 -1.821,13.025 -1.821,14.154 v 18.608"
               id="path83"
               inkscape:connector-curvature="0" />
            <path
               d="m 46.827,43.367 c 0.561,0.179 1.088,0.265 1.655,0.497 0,-3.925 0.874,-32.267 -0.828,-32.267 -1.702,0 -0.827,27.891 -0.827,31.77"
               id="path85"
               inkscape:connector-curvature="0" />
            <path
               d="m 42.359,41.878 c 0.596,0.247 1.198,0.481 1.82,0.661 0,-3.892 0.967,-30.943 -0.91,-30.943 -1.878,10e-4 -0.91,26.453 -0.91,30.282"
               id="path87"
               inkscape:connector-curvature="0" />
            <path
               d="m 37.893,37.907 c 0.496,1.115 0.723,1.946 1.817,2.647 V 26.075 c 0,-2.448 1.604,-12.578 0,-14.479 -2.174,-2.578 -1.817,10.277 -1.817,10.972 v 15.339"
               id="path89"
               inkscape:connector-curvature="0" />
            <path
               d="m 79.589,46.18 c -3.352,0.133 -1.654,-29.496 -1.654,-34.408 0,-0.631 1.654,-0.182 1.654,1.311 V 24.606 46.18"
               id="path91"
               inkscape:connector-curvature="0" />
            <path
               d="m 84.058,46.014 c -3.584,0.254 -1.82,-29.25 -1.82,-34.243 0,-0.569 1.82,-0.307 1.82,1.305 v 11.467 21.471"
               id="path93"
               inkscape:connector-curvature="0" />
            <path
               d="m 88.524,45.683 c -0.653,0.085 -1.196,-0.044 -1.82,0.167 0,-4.202 -0.96101,-34.253 0.91,-34.253 1.872,0 0.91,29.9 0.91,34.086"
               id="path95"
               inkscape:connector-curvature="0" />
            <path
               d="m 92.827,45.021 c -0.58701,0.143 -1.208,0.234 -1.82,0.331 0,-4.155 -0.96201,-33.756 0.91,-33.756 1.873,10e-4 0.91,29.301 0.91,33.425"
               id="path97"
               inkscape:connector-curvature="0" />
            <path
               d="m 97.295,44.359 c -0.605,0.15 -1.207,0.229 -1.82,0.331 V 29.222 c 0,-3.007 -1.956,-15.296 0,-17.625 1.965,-2.339 1.82,13.025 1.82,14.154 v 18.608"
               id="path99"
               inkscape:connector-curvature="0" />
            <path
               d="m 101.6,43.367 c -0.594,0.193 -1.199,0.301 -1.82,0.497 0,-4.016 -0.965,-32.267 0.91,-32.267 1.876,0 0.91,27.801 0.91,31.77"
               id="path101"
               inkscape:connector-curvature="0" />
            <path
               d="m 106.06,41.878 c -0.596,0.246 -1.206,0.457 -1.82,0.661 0,-3.891 -0.967,-30.943 0.91,-30.943 1.877,0 0.91,26.453 0.91,30.282"
               id="path103"
               inkscape:connector-curvature="0" />
            <path
               d="m 110.37,37.907 c -0.45599,1.168 -0.486,1.933 -1.654,2.647 V 26.075 c 0,-2.378 -1.589,-12.664 0,-14.479 1.994,-2.276 1.654,10.213 1.654,10.972 v 15.339"
               id="path105"
               inkscape:connector-curvature="0" />
          </g>
          <path
             d="M 74.129,3.323 C 68.59,3.224 37.894,3.037 37.893,11.596 c -10e-4,8.606 30.68,8.439 36.236,8.439 5.585,0 36.238,0.211 36.236,-8.439 C 110.364,2.994 79.697,3.224 74.129,3.323"
             id="path107"
             inkscape:connector-curvature="0"
             style="fill:#ffffff" />
        </g>
        <g
           id="g3097"
           style="fill:#386666">
          <path
             d="m 182.84,64.216 c 3.755,3.259 8.582,5.216 12.412,8.438 4.141,3.484 6.37,12.148 11.912,7.116 -4.933,-8.727 -12.627,-13.263 -20.684,-18.697 -0.653,0.971 -3.616,3.14 -3.64,3.143"
             id="path109"
             inkscape:connector-curvature="0" />
          <path
             d="m 182.84,64.216 c 1.324,-0.883 2.648,-1.766 3.973,-2.647 -1.633,0.703 -4.066,2.66 -3.973,2.647"
             id="path111"
             inkscape:connector-curvature="0" />
          <path
             d="m 183.5,58.921 c -0.636,-0.979 -1.68,-1.793 -2.481,-2.648 -0.29999,2.834 0.40701,5.481 1.821,7.943 4.354,-1.594 4.966,-7.624 0.66,-10.259 0.633,0.98 1.682,1.793 2.482,2.647 0.11,-0.882 0.222,-1.765 0.33198,-2.647 -3.378,-0.569 -3.618,1.902 -2.814,4.964"
             id="path113"
             inkscape:connector-curvature="0" />
          <path
             d="m 126.58,56.273 c -0.938,0.692 -1.682,1.794 -2.482,2.648 h 31.926 21.297 c 5.265,0 6.178,1.362 6.178,-4.188 0,1.147 -57.892,-5.793 -61.883,1.871 0.933,-0.71 1.678,-1.789 2.482,-2.647 h -2.814 c -0.095,3.267 2.391,3.288 5.296,2.316"
             id="path115"
             inkscape:connector-curvature="0" />
          <path
             d="m 124.43,64.713 c 2.741,-3.974 4.182,-10.291 -2.812,-8.109 -0.008,2.046 -0.282,3.045 -0.829,4.964 1.117,0.121 3.681,3.241 3.641,3.145"
             id="path117"
             inkscape:connector-curvature="0" />
          <path
             d="m 103.08,83.41 c 5.142,-9.009 13.516,-12.642 21.345,-18.697 -3.501,-6.107 -8.586,-0.364 -12.906,2.813 -5.223,3.84 -9.538,7.873 -12.741,13.569 1.354,0.728 2.835,1.875 4.302,2.315"
             id="path119"
             inkscape:connector-curvature="0" />
          <path
             d="m 98.121,107.57 c -0.149,-4.377 -0.12,-8.764 0.829,-13.072 1.13,-5.133 7.059,-11.563 -0.167,-13.402 -2.76,5.107 -11.616,29.012 -0.662,26.474"
             id="path121"
             inkscape:connector-curvature="0" />
          <path
             d="m 97.791,194.27 c 0.097,-28.901 0.22,-57.802 0.33,-86.704 -6.904,-1.55 -4.974,3.074 -4.993,8.157 -0.039,10.214 -0.079,20.428 -0.118,30.643 -0.06101,15.912 -0.122,31.824 -0.183,47.737 1.283,-0.094 3.386,0.17401 4.964,0.16701"
             id="path123"
             inkscape:connector-curvature="0" />
          <path
             d="m 153.88,220.09 c -12.366,-0.235 -25.299,-0.771 -37.065,-4.964 -5.732,-2.044 -11.502,-4.921 -15.308,-9.764 -3.617,-4.603 -1.951,-12.531 -8.686,-11.417 -2.029,28.521 41.973,30.746 61.059,31.109 0,-1.579 0.283,-3.414 0,-4.964"
             id="path125"
             inkscape:connector-curvature="0" />
          <path
             d="m 208.98,196.59 c -0.636,-0.929 -1.683,-1.683 -2.481,-2.482 -0.879,11.524 -8.926,19.191 -19.995,22.049 -6.108,1.577 -12.213,2.717 -18.502,3.275 -5.821,0.517 -15.556,-2.273 -14.119,5.621 13.394,-0.26 26.076,-1.483 38.795,-5.864 6.508,-2.24 27.83,-20.871 16.303,-27.563 0.66,0.923 1.677,1.677 2.482,2.481 0.061,-5.012 -3.539,-1.691 -2.483,2.483"
             id="path127"
             inkscape:connector-curvature="0" />
          <path
             d="m 206.34,194.11 c 0.668,0.94499 1.789,1.823 2.643,2.482 -0.199,-1.622 0.271,-3.354 0,-4.964 0.289,0.216 1.813,1.749 2.315,2.481 -4.174,-1.056 -7.486,2.545 -2.477,2.482 -0.804,-0.804 -1.558,-1.82 -2.481,-2.481"
             id="path129"
             inkscape:connector-curvature="0" />
          <path
             d="m 208.49,105.91 c -0.717,29.397 -1.434,58.795 -2.15,88.193 7.145,1.565 5.054,-3.903 5.183,-9.172 0.248,-10.174 0.49699,-20.348 0.745,-30.521 0.396,-16.167 0.79001,-32.333 1.186,-48.5 -1.554,0 -3.454,-0.328 -4.964,0"
             id="path131"
             inkscape:connector-curvature="0" />
          <path
             d="m 202.86,82.086 c 2.068,4.489 3.665,8.65 4.918,13.416 1.492,5.682 -1.887,10.412 4.9,10.412 4.482,0 -4.261,-23.774 -5.513,-26.144 -1.358,0.73 -3.123,1.335 -4.305,2.316"
             id="path133"
             inkscape:connector-curvature="0" />
        </g>
        <g
           id="g3112"
           style="fill-rule:evenodd">
          <path
             d="m 208.98,194.11 c -1.044,22.764 -26.494,26.557 -44.521,28.125 -19.511,1.697 -44.329,0.67799 -60.769,-11.184 -2.898,-2.091 -13.322,-16.941 -6.422,-16.941 h 36.357 75.355"
             id="path135"
             inkscape:connector-curvature="0"
             style="fill:#70adbf" />
          <path
             d="m 184.83,62.893 c 17.271,11.881 26.607,23.594 26.086,45.467 -0.683,28.673 -1.366,57.346 -2.049,86.018 -0.37201,15.63 -37.432,16.672 -48.03,16.939 -17.926,0.453 -49.749,1.951 -63.042,-12.989 -3.554,-3.994 -2.465,-8.695 -2.445,-13.801 l 0.147,-38.157 c 0.064,-16.785 -1.653,-34.842 0.846,-51.511 1.083,-7.229 5.014,-14.8 10.057,-20.052 3.013,-3.138 12.858,-11.913 17.286,-11.913 20.381,-9.88e-4 40.762,-9.88e-4 61.144,-9.88e-4"
             id="path137"
             inkscape:connector-curvature="0"
             style="fill:#c1dde5" />
          <path
             d="m 181.02,215.46 c 0.733,-1.276 0.918,-3.211 1.324,-4.635 -7.471,-2.12 -14.94,-4.241 -22.411,-6.361 -5.124,-1.455 -5.864,3.773 -3.402,7.355 3.529,5.135 20.409,9.633 24.489,3.641"
             id="path139"
             inkscape:connector-curvature="0"
             style="fill:#ef7c00" />
          <path
             d="m 170.76,202.71 c 2.259,0.623 12.63,3.952 11.255,7.945 -1.396,4.058 -11.457,1.421 -14.066,0.65999 -2.509,-0.73099 -12.378,-3.773 -11.253,-7.94 1.152,-4.271 11.601,-1.391 14.064,-0.66501"
             id="path141"
             inkscape:connector-curvature="0"
             style="fill:#ffd12d" />
          <path
             d="m 147.27,206.19 c -0.15399,-1.497 -1.146,-3.207 -1.656,-4.632 -8.383,3.144 -16.766,6.288 -25.149,9.432 2.974,7.688 6.479,8.053 14.478,5.378 4.336,-1.451 12.576,-4.529 12.327,-10.178"
             id="path143"
             inkscape:connector-curvature="0"
             style="fill:#ef7c00" />
          <path
             d="m 131.38,201.89 c 2.392,-0.90401 12.322,-4.293 13.732,-0.166 1.357,3.976 -8.544,7.878 -10.92,8.771 -2.421,0.91 -12.236,4.256 -13.733,0.32901 -1.585,-4.157 8.529,-8.069 10.921,-8.934"
             id="path145"
             inkscape:connector-curvature="0"
             style="fill:#ffd12d" />
          <path
             d="m 135.68,212.97 c 1.711,7.293 11.094,9.334 17.373,7.114 8.569,-3.029 8.973,-9.493 7.612,-17.209 -4.683,1.405 -25.825,4.742 -24.985,10.095"
             id="path147"
             inkscape:connector-curvature="0"
             style="fill:#ef7c00" />
          <path
             d="m 146.44,197.09 c 16.271,-2.063 19.631,17.016 3.311,19.855 -16.215,2.823 -19.42,-17.176 -3.311,-19.855"
             id="path149"
             inkscape:connector-curvature="0"
             style="fill:#ffd12d" />
          <path
             d="m 180.69,206.52 c 3.777,6.465 13.111,5.689 18.529,1.819 7.458,-5.327 5.923,-11.748 2.482,-18.862 -4.014,2.696 -23.405,12.339 -21.011,17.043"
             id="path151"
             inkscape:connector-curvature="0"
             style="fill:#ef7c00" />
          <path
             d="m 186.32,188.15 c 14.738,-7.083 23.569,10.674 8.938,18.035 -14.632,7.361 -23.654,-10.903 -8.938,-18.035"
             id="path153"
             inkscape:connector-curvature="0"
             style="fill:#ffd12d" />
          <path
             d="m 193.26,187.65 c -0.84,-1.249 -2.521,-2.292 -3.64,-3.31 -5.156,5.881 -10.313,11.761 -15.47,17.642 -3.487,3.977 0.851,6.78 5.213,6.188 6.117,-0.83101 17.651,-14.37 13.897,-20.52"
             id="path155"
             inkscape:connector-curvature="0"
             style="fill:#ef7c00" />
          <path
             d="m 177.21,191.46 c 1.509,-1.757 9.032,-9.678 12.083,-6.784 3.227,3.061 -3.662,10.909 -5.462,12.906 -1.659,1.842 -8.829,9.679 -12.08,6.785 -3.083,-2.745 3.826,-11.081 5.459,-12.907"
             id="path157"
             inkscape:connector-curvature="0"
             style="fill:#ffffff" />
        </g>
        <path
           d="m 189.62,184.34 c -4.748,-2.023 -9.969,3.577 -12.74,6.786 0.22101,0.22 0.44,0.44 0.66101,0.66 3.394,-3.946 7.605,-6.264 12.079,-7.446"
           id="path159"
           inkscape:connector-curvature="0" />
        <path
           d="m 184.33,197.91 c 2.523,-2.864 7.923,-9.061 5.293,-13.568 -0.38,3.019 -5.868,12.758 -5.293,13.568"
           id="path161"
           inkscape:connector-curvature="0" />
        <path
           d="m 171.42,204.7 c 4.997,2.041 9.785,-3.666 12.907,-6.785 -0.332,-0.22 -0.66399,-0.439 -0.99599,-0.659 -3.126,4.197 -7.509,6.244 -11.911,7.444"
           id="path163"
           inkscape:connector-curvature="0" />
        <path
           d="m 176.88,191.13 c -2.815,2.668 -7.959,9.493 -5.46,13.567 0.31601,-3.446 6.161,-11.768 5.46,-13.567"
           id="path165"
           inkscape:connector-curvature="0" />
        <g
           id="g3130"
           style="fill-rule:evenodd">
          <path
             d="m 124.76,212.64 c 5.032,-5.035 -0.929,-6.277 -5.137,-8.919 -5.017,-3.149 -10.034,-6.299 -15.051,-9.448 -4.449,7.169 -2.477,9.946 4.55,14.81 3.642,2.519 11.515,7.356 15.638,3.557"
             id="path167"
             inkscape:connector-curvature="0"
             style="fill:#ef7c00" />
          <path
             d="m 118.31,197.42 c 2.225,1.394 10.835,7.135 8.604,10.757 -2.26,3.669 -11.383,-1.771 -13.569,-3.146 -2.201,-1.386 -11.114,-7.184 -8.603,-10.921 2.337,-3.477 11.388,1.952 13.568,3.31"
             id="path169"
             inkscape:connector-curvature="0"
             style="fill:#ffd12d" />
          <path
             d="m 123.11,172.43 c 0.411,-1.464 0.115,-3.437 0.167,-4.964 -8.88,-0.27499 -17.76,-0.551 -26.64,-0.82599 -0.232,7.869 1.872,9.485 9.929,10.423 4.671,0.54201 14.519,0.87401 16.544,-4.633"
             id="path171"
             inkscape:connector-curvature="0"
             style="fill:#ef7c00" />
          <path
             d="m 110.04,162.34 c 2.51,0.067 13.124,0.96899 12.907,5.128 -0.221,4.241 -11.075,4.057 -13.569,3.973 -2.586,-0.087 -12.97,-0.62801 -12.741,-4.965 0.226,-4.287 10.854,-4.268 13.403,-4.136"
             id="path173"
             inkscape:connector-curvature="0"
             style="fill:#ffd12d" />
          <path
             d="m 123.44,184.68 c 0.403,-1.409 0.115,-3.326 0.16599,-4.799 -8.935,-0.27501 -17.87,-0.55101 -26.805,-0.826 -0.249,8.163 3.031,9.98 11.416,10.506 4.724,0.296 13.148,0.494 15.223,-4.881"
             id="path175"
             inkscape:connector-curvature="0"
             style="fill:#ef7c00" />
          <g
             id="g3137"
             style="fill:#ffd12d">
            <path
               d="m 110.2,174.75 c 2.609,0.062 13.039,0.668 12.904,4.964 -0.138,4.4 -10.813,4.225 -13.402,4.138 -2.549,-0.086 -13.111,-0.66901 -12.904,-4.964 0.20599,-4.281 10.869,-4.27 13.402,-4.138"
               id="path177"
               inkscape:connector-curvature="0" />
            <path
               d="m 165.96,104.09 c 16.06,3.153 11.856,23.096 -4.136,19.69 -16.018,-3.41 -11.864,-22.957 4.136,-19.69"
               id="path179"
               inkscape:connector-curvature="0" />
          </g>
          <path
             d="m 158.68,111.21 c -1.31,7.531 6.921,12.717 13.568,12.906 9.176,0.261 11.796,-5.451 13.404,-13.237 -4.784,-0.366 -25.942,-4.766 -26.972,0.331"
             id="path181"
             inkscape:connector-curvature="0"
             style="fill:#ef7c00" />
          <path
             d="m 174.4,100.29 c 16.179,3.169 12.022,23.081 -4.137,19.855 -16.064,-3.206 -11.921,-23.128 4.137,-19.855"
             id="path183"
             inkscape:connector-curvature="0"
             style="fill:#ffd12d" />
          <path
             d="m 165.14,108.56 c 5.929,-6.525 -8.23,-10.33 -13.062,-13.09 -3.991,-2.281 -12.301,-7.292 -10.6,2.336 1.15,6.498 18.308,15.834 23.662,10.754"
             id="path185"
             inkscape:connector-curvature="0"
             style="fill:#ef7c00" />
          <path
             d="m 158.19,93.669 c 2.283,1.161 11.068,6.785 8.935,10.424 -2.161,3.687 -11.545,-1.392 -13.733,-2.647 -2.074,-1.189 -11.481,-6.926 -9.1,-10.59 2.328,-3.581 11.611,1.349 13.898,2.813"
             id="path187"
             inkscape:connector-curvature="0"
             style="fill:#ffd12d" />
          <path
             d="m 183.5,56.439 c -0.608,5.065 1.99,8.064 5.795,10.921 2.003,1.504 9.74,4.492 10.091,6.949 0.852,5.977 -13.521,8.49 -17.209,9.267 -17.565,3.699 -36.691,2.944 -54.355,0.331 -4.129,-0.611 -18.251,-3.029 -18.945,-8.604 -0.444,-3.57 4.208,-4.785 6.948,-6.62 4.55,-3.048 5.438,-5.446 8.275,-9.431 0.92799,-1.303 -1.17,-2.813 0.952,-2.813 h 5.226 21.297 31.925"
             id="path189"
             inkscape:connector-curvature="0"
             style="fill:#c1dde5" />
          <path
             d="M 200.88,98.964 C 197.339,82.883 183.583,64.198 165.8,65.043 c 4.828,5.917 7.644,13.424 8.691,20.973 0.95799,6.896 2.645,5.902 9.36,7.896 5.678,1.684 11.354,3.368 17.029,5.052"
             id="path191"
             inkscape:connector-curvature="0"
             style="fill:#8ec1ce" />
          <path
             d="m 191.78,68.683 c -0.745,-0.567 -11.312,-12.41 -8.493,-12.41 H 153.72 124.318 c 2.727,0 -8.036,12.153 -8.819,12.741 13.652,-5.531 24.278,-0.992 38.057,-0.992 12.686,0 26.197,-6.559 38.224,0.661"
             id="path193"
             inkscape:connector-curvature="0"
             style="fill:#4293aa" />
          <path
             d="m 135.85,88.871 c 1.082,7.562 10.243,10.138 16.714,8.438 8.836,-2.321 9.78,-8.426 9.101,-16.381 -4.707,1.009 -26.179,2.756 -25.815,7.943"
             id="path195"
             inkscape:connector-curvature="0"
             style="fill:#ef7c00" />
          <path
             d="M 147.93,73.979 C 164.174,72.668 165.951,92.664 149.584,94 133.017,95.353 131.702,76.109 147.93,73.979"
             id="path197"
             inkscape:connector-curvature="0"
             style="fill:#ffd12d" />
          <path
             d="m 99.445,92.179 c -3.022,7.024 3.46,14.01 9.929,15.886 8.799,2.552 12.768,-2.475 16.214,-9.596 -4.512,-1.515 -23.95,-10.926 -26.143,-6.29"
             id="path199"
             inkscape:connector-curvature="0"
             style="fill:#ef7c00" />
          <path
             d="m 117.32,85.562 c 14.885,6.975 5.946,25.106 -8.771,18.036 -14.829,-7.124 -5.925,-25.135 8.771,-18.036"
             id="path201"
             inkscape:connector-curvature="0"
             style="fill:#ffd12d" />
          <path
             d="m 96.633,115.02 c -2.863,6.951 3.756,13.892 10.093,15.719 8.781,2.532 12.775,-2.485 16.217,-9.597 -4.56,-1.52 -24.293,-11.01 -26.31,-6.122"
             id="path203"
             inkscape:connector-curvature="0"
             style="fill:#ef7c00" />
          <path
             d="m 114.5,108.23 c 14.857,7.196 6.041,25.403 -8.771,18.203 -14.775,-7.183 -6.011,-25.329 8.771,-18.203"
             id="path205"
             inkscape:connector-curvature="0"
             style="fill:#ffd12d" />
          <path
             d="m 96.633,136.2 c -2.816,7.005 3.651,14.026 10.093,15.884 8.781,2.532 12.775,-2.485 16.217,-9.597 -4.537,-1.512 -24.111,-10.932 -26.31,-6.287"
             id="path207"
             inkscape:connector-curvature="0"
             style="fill:#ef7c00" />
          <path
             d="m 114.5,129.58 c 14.858,7.195 6.04,25.402 -8.771,18.202 -14.775,-7.183 -6.012,-25.327 8.771,-18.202"
             id="path209"
             inkscape:connector-curvature="0"
             style="fill:#ffd12d" />
          <path
             d="m 97.295,150.09 c -3.061,6.961 3.598,13.718 9.928,15.554 8.725,2.53 12.768,-2.308 16.215,-9.432 -4.521,-1.487 -23.956,-10.765 -26.143,-6.122"
             id="path211"
             inkscape:connector-curvature="0"
             style="fill:#ef7c00" />
          <path
             d="m 115.16,143.31 c 14.902,6.979 5.95,25.033 -8.769,18.036 -14.85,-7.06 -5.834,-25.093 8.769,-18.036"
             id="path213"
             inkscape:connector-curvature="0"
             style="fill:#ffd12d" />
          <g
             id="g3158"
             style="fill:#ef7c00">
            <path
               d="m 134.69,103.76 c 15.773,4.258 11.625,23.414 -4.466,19.691 -16.05,-3.713 -11.529,-22.708 4.466,-19.691"
               id="path215"
               inkscape:connector-curvature="0" />
            <path
               d="m 101.93,107.73 c -1.156,7.617 6.446,12.577 13.237,13.072 9.305,0.679 11.935,-5.036 13.735,-12.907 -4.758,-0.454 -25.942,-5.238 -26.972,-0.165"
               id="path217"
               inkscape:connector-curvature="0" />
          </g>
          <path
             d="m 117.81,97.309 c 15.907,3.942 11.642,23.254 -4.469,19.525 -16.046,-3.714 -11.578,-22.546 4.469,-19.525"
             id="path219"
             inkscape:connector-curvature="0"
             style="fill:#ffd12d" />
          <path
             d="m 119.63,102.44 c 3.822,6.523 13.084,5.809 18.534,1.82 7.461,-5.46 5.873,-11.744 2.315,-18.863 -3.97,2.667 -23.541,12.514 -20.849,17.043"
             id="path221"
             inkscape:connector-curvature="0"
             style="fill:#ef7c00" />
          <path
             d="m 125.26,84.237 c 14.717,-7.138 23.613,10.802 8.935,18.036 -14.666,7.229 -23.777,-11.074 -8.935,-18.036"
             id="path223"
             inkscape:connector-curvature="0"
             style="fill:#ffd12d" />
          <path
             d="m 135.02,116.01 c 2.246,7.471 11.817,8.138 17.87,5.296 8.301,-3.897 8.237,-10.119 5.958,-17.871 -4.408,1.854 -25.198,7.606 -23.828,12.575"
             id="path225"
             inkscape:connector-curvature="0"
             style="fill:#ef7c00" />
          <path
             d="m 144.12,99.295 c 15.95,-4.271 21.218,15.05 5.294,19.36 -16.038,4.341 -20.855,-14.248 -5.294,-19.36"
             id="path227"
             inkscape:connector-curvature="0"
             style="fill:#ffd12d" />
          <path
             d="m 176.22,98.469 c -1.321,7.601 6.943,12.497 13.568,12.74 9.264,0.34 11.817,-5.316 13.403,-13.238 -4.793,-0.336 -25.942,-4.608 -26.971,0.498"
             id="path229"
             inkscape:connector-curvature="0"
             style="fill:#ef7c00" />
          <path
             d="m 191.94,87.546 c 16.15,3.168 12.044,23.136 -4.134,19.691 -16.017,-3.409 -11.867,-22.953 4.134,-19.691"
             id="path231"
             inkscape:connector-curvature="0"
             style="fill:#ffd12d" />
          <path
             d="m 209.98,109.55 c -0.15401,-1.498 -1.147,-3.208 -1.657,-4.633 -8.383,3.144 -16.767,6.288 -25.149,9.432 2.975,7.693 6.476,8.045 14.479,5.378 4.462,-1.489 12.534,-4.356 12.327,-10.177"
             id="path233"
             inkscape:connector-curvature="0"
             style="fill:#ef7c00" />
          <path
             d="m 194.09,105.25 c 2.39,-0.841 12.34,-4.182 13.731,-0.166 1.417,4.087 -8.541,7.894 -10.921,8.77 -2.261,0.833 -12.465,4.382 -13.73,0.33099 -1.305,-4.176 8.327,-7.996 10.92,-8.935"
             id="path235"
             inkscape:connector-curvature="0"
             style="fill:#ffd12d" />
          <path
             d="m 157.03,85.23 c -2.866,6.954 3.758,13.887 10.092,15.719 8.794,2.543 12.833,-2.382 16.214,-9.596 -4.649,-1.56 -24.003,-11.099 -26.306,-6.123"
             id="path237"
             inkscape:connector-curvature="0"
             style="fill:#ef7c00" />
          <path
             d="m 175.06,78.446 c 14.658,7.104 5.969,25.291 -8.771,18.202 -14.885,-7.159 -6.085,-25.369 8.771,-18.202"
             id="path239"
             inkscape:connector-curvature="0"
             style="fill:#ffd12d" />
          <path
             d="m 100.77,110.55 c -0.103,27.141 -0.20599,54.282 -0.309,81.422 -0.013,3.411 -0.939,4.992 2.129,6.522 4.389,2.189 9.086,3.57 13.765,4.974 10.45,3.135 21.626,3.98 32.483,4.294 19.794,0.57001 43.227,-0.086 59.319,-12.991 1.87,-1.499 0.952,-6.255 1.002,-8.468 0.17499,-7.746 0.34999,-15.492 0.523,-23.238 0.371,-16.447 0.741,-32.896 1.112,-49.343 0.059,-2.602 0.117,-5.204 0.176,-7.806 -12.456,14.476 -37.835,13.403 -55.112,13.403 -17.511,1e-5 -39.382,-0.016 -55.088,-8.769"
             id="path241"
             inkscape:connector-curvature="0"
             style="fill:#007cff" />
          <path
             d="m 209.32,111.54 c -13.316,12.119 -36.234,11.416 -53.043,11.416 -16.559,0 -37.083,0.184 -52.359,-7.115 v 78.155 c 0,10.694 46.438,10.649 54.107,10.537 8.614,-0.12599 49.229,-1.047 49.519,-13.964 0.59201,-26.342 1.184,-52.686 1.776,-79.029"
             id="path243"
             inkscape:connector-curvature="0"
             style="fill:#56ff3d" />
          <path
             d="m 210,116.17 c -14.352,9.89 -33.717,9.763 -50.469,9.763 -16.471,0 -34.437,-0.505 -50.136,-5.956 v 72.78 c 0,8.644 44.521,9.198 50.85,8.987 9.649,-0.323 19.062,-1.204 28.587,-2.712 3.849,-0.60899 19.254,-4.041 19.376,-9.053 0.597,-24.603 1.195,-49.206 1.792,-73.809"
             id="path245"
             inkscape:connector-curvature="0"
             style="fill:#ffffff" />
          <path
             d="m 118.64,142.81 c -0.999,-3.792 -0.323,-14.994 -5.626,-14.893 0.668,2.844 2.511,18.863 4.632,19.69 3.58,1.396 2.917,-3.313 3.807,-6.205 0.85899,-2.792 4.466,-10.289 1.985,-11.334 -3.472,-1.461 -4.385,10.387 -4.798,12.742"
             id="path247"
             inkscape:connector-curvature="0" />
          <g
             id="g3177"
             style="fill:#ffffff">
            <path
               d="m 155.54,136.36 c 0.802,2.341 1.531,4.719 2.151,7.116 -1.155,0.23601 -3.322,0.237 -4.469,0 0.69702,-2.398 1.572,-4.735 2.318,-7.116"
               id="path255"
               inkscape:connector-curvature="0" />
            <path
               d="m 154.22,186.5 c -0.16899,5.583 -6.05,4.781 -9.927,4.635 -4.104,-0.155 -4.223,0.26401 -5.297,-2.814 -0.748,-2.146 0,-5.975 0,-8.272 4.575,0.405 16.312,-1.272 15.224,6.451"
               id="path265"
               inkscape:connector-curvature="0" />
            <path
               d="m 153.55,168.79 c -0.459,4.868 -5.995,4.501 -9.596,4.139 -3.274,-0.32999 -3.63,0.27301 -4.799,-2.152 -0.86299,-1.792 0,-6.251 0,-8.273 4.612,0.36899 15.477,-1.273 14.395,6.286"
               id="path267"
               inkscape:connector-curvature="0" />
          </g>
        </g>
        <g
           id="g3182"
           style="fill:#386666">
          <path
             d="m 122.44,52.799 c 1.427,-5.144 9.912,-6.688 14.398,-7.529 3.186,-0.598 6.385,-1.147 9.608,-1.486 5.15,-0.542 7.601,1.486 7.601,-4.44 0,-1.708 -35.318,0.812 -36.569,13.455 1.556,0 3.446,0.322 4.962,0"
             id="path273"
             inkscape:connector-curvature="0" />
          <path
             d="m 154.05,61.403 c -7.57,0.142 -14.952,-0.815 -22.34,-2.399 -6.112,-1.311 -8.626,-6.961 -14.229,-6.205 0.257,8.244 10.834,10.592 17.207,11.914 3.816,0.792 7.664,1.251 11.553,1.446 4.783,0.23901 9.263,1.813 7.809,-4.756"
             id="path275"
             inkscape:connector-curvature="0" />
          <path
             d="m 185.49,52.799 c -0.774,5.275 -8.438,6.525 -12.741,7.28 -3.632,0.637 -7.422,0.923 -11.101,1.116 -5.154,0.27 -7.597,-1.365 -7.597,4.396 0,0.908 36.208,1.688 36.403,-12.792 -1.543,0 -3.465,-0.34 -4.964,0"
             id="path277"
             inkscape:connector-curvature="0" />
          <path
             d="m 154.05,43.532 c 6.851,-0.147 14.231,0.624 20.847,2.482 5.832,1.638 10.241,7.594 15.557,6.785 -0.771,-7.69 -11.168,-11.293 -17.652,-12.373 -5.595,-0.932 -20.717,-5.772 -18.752,3.106"
             id="path279"
             inkscape:connector-curvature="0" />
        </g>
        <g
           id="g3188"
           style="fill-rule:evenodd">
          <path
             d="m 154.05,41.05 c -7.427,-0.14 -33.868,0.671 -34.087,11.749 -0.225,11.395 26.827,11.09 34.087,11.086 7.303,-0.004 34.441,0.749 33.921,-11.086 C 187.48299,41.703 161.634,40.897 154.05,41.05"
             id="path281"
             inkscape:connector-curvature="0"
             style="fill:#c1dde5" />
          <path
             d="m 153.55,61.403 c 5,-0.181 32.883,-0.651 30.779,-10.093 -6.651,7.691 -20.312,7.942 -29.792,7.942 -9.943,0 -24.93,0.387 -31.929,-7.942 -1.992,9.43 25.737,9.914 30.942,10.093"
             id="path283"
             inkscape:connector-curvature="0"
             style="fill:#4293aa" />
          <path
             d="m 184.66,48 c 0.746,13.715 -46.547,8.092 -53.94,5.626 -1.417,-0.472 -7.266,-2.738 -6.618,-5.13 C 124.51699,46.962 137.05,48 138.631,48 h 46.029"
             id="path285"
             inkscape:connector-curvature="0"
             style="fill:#164c4c" />
        </g>
        <g
           id="g3193"
           style="fill:#386666">
          <path
             d="m 119.63,18.051 c 3.672,-3.442 11.686,-4.543 17.043,-5.296 3.335,-0.468 6.735,-0.662 10.096,-0.827 2.043,-0.1 12.579,0.139 7.61,-5.13 -2.333,-2.474 -18.526,1.047 -21.952,1.618 -5.725,0.954 -16.696,2.449 -17.762,9.635 1.558,0 3.448,0.322 4.965,0"
             id="path287"
             inkscape:connector-curvature="0" />
          <path
             d="M 119.63,45.021 V 28.368 18.884 c 0,-1.383 -4.214,-1.53 -4.964,-0.833 -1.708,1.586 0,14.271 0,16.653 0,5.296 -2.477,12.06 4.964,10.317"
             id="path289"
             inkscape:connector-curvature="0" />
          <path
             d="m 154.38,51.31 c -10.251,0.187 -26.63,-0.104 -34.916,-6.785 -0.618,0.443 -3.083,0.741 -4.798,0.496 1.538,6.91 12.881,8.413 18.534,9.432 4.146,0.747 8.311,1.17 12.501,1.569 4.88,0.465 10.229,1.997 8.679,-4.712"
             id="path291"
             inkscape:connector-curvature="0" />
          <path
             d="m 189.13,45.021 c -3.588,1.314 -11.021,3.961 -16.561,4.836 -3.617,0.57 -7.25,1.064 -10.908,1.287 -2.072,0.126 -12.153,-0.041 -7.28,5.129 2.401,2.548 18.516,-1.376 21.951,-1.948 5.487,-0.915 16.29,-2.692 17.762,-9.303 -1.561,-9.99e-4 -3.44,-0.314 -4.964,-9.99e-4"
             id="path293"
             inkscape:connector-curvature="0" />
          <path
             d="m 189.13,44.856 c 1.253,0.111 3.7,0.237 4.964,0 -1.653,0 -3.311,-0.042 -4.964,0"
             id="path295"
             inkscape:connector-curvature="0" />
          <path
             d="m 189.13,18.051 v 17.796 c 0,1.674 -1.202,14.41 4.964,9.009 1.78,-1.56 0,-15.335 0,-17.796 -2e-5,-5.097 2.116,-10.747 -4.964,-9.009"
             id="path297"
             inkscape:connector-curvature="0" />
          <path
             d="m 154.38,11.763 c 7.28,-0.132 14.683,0.397 21.84,1.737 6.202,1.161 12.15,5.301 17.873,4.551 -1.098,-7.435 -12.67,-8.782 -18.533,-9.763 -4.207,-0.704 -8.487,-1.096 -12.746,-1.281 -4.822,-0.21 -10,-2.025 -8.434,4.756"
             id="path299"
             inkscape:connector-curvature="0" />
        </g>
        <g
           id="g3202"
           style="fill-rule:evenodd">
          <path
             d="m 191.61,45.021 c -4.784,9.97 -31.818,9.07 -41.038,8.77 -7.971,-0.259 -16.034,-1.251 -23.745,-3.31 -9.236,-2.465 -9.68,-4.683 -9.68,-13.745 V 18.884 c 0,-1.699 3.734,-0.833 5.109,-0.833 h 38.792 30.214 c 0.71199,0 0.34799,24.032 0.34799,26.97"
             id="path301"
             inkscape:connector-curvature="0"
             style="fill:#4293aa" />
          <g
             id="g3205"
             style="fill:#bfc6d6">
            <path
               d="m 153.22,53.46 c 4.02,0.47 1.987,-29.32 1.987,-34.206 0,-1.761 -1.987,-2.392 -1.987,-0.833 V 29.026 53.46"
               id="path303"
               inkscape:connector-curvature="0" />
            <path
               d="m 148.75,53.46 c 3.719,0.223 1.82,-8.488 1.82,-11.309 V 17.9 c 0,-0.615 -1.82,-0.269 -1.82,1.354 V 31.163 53.46"
               id="path305"
               inkscape:connector-curvature="0" />
            <path
               d="m 144.29,53.13 c 0.603,0.093 1.218,0.072 1.819,0.166 0,-4.325 0.959,-35.576 -0.91,-35.576 -1.869,0 -0.909,31.1 -0.909,35.41"
               id="path307"
               inkscape:connector-curvature="0" />
            <path
               d="m 139.65,52.799 c 0.605,0.098 1.219,0.036 1.82,0.165 0,-4.295 0.95999,-35.245 -0.91,-35.245 -1.86999,0 -0.91,30.801 -0.91,35.08"
               id="path309"
               inkscape:connector-curvature="0" />
            <path
               d="m 135.19,52.137 c 0.608,0.157 1.205,0.209 1.82,0.332 0,-4.249 0.961,-34.749 -0.91,-34.749 -1.871,0 -0.91,30.199 -0.91,34.417"
               id="path311"
               inkscape:connector-curvature="0" />
            <path
               d="m 130.72,51.475 c 0.603,0.14 1.214,0.167 1.82,0.331 0,-4.186 0.96201,-34.086 -0.90999,-34.086 -1.872,-9.99e-4 -0.91,29.599 -0.91,33.755"
               id="path313"
               inkscape:connector-curvature="0" />
            <path
               d="m 126.09,50.317 c 0.625,0.214 1.19,0.258 1.82,0.496 V 35.345 c 0,-2.993 1.954,-15.314 0,-17.625 -1.982,-2.345 -1.82,12.962 -1.82,14.083 v 18.514"
               id="path315"
               inkscape:connector-curvature="0" />
            <path
               d="m 121.62,48.828 c 0.589,0.258 1.199,0.482 1.82,0.662 V 33.605 c 0,-2.652 1.753,-13.843 0,-15.885 -2.138,-2.49 -1.82,11.389 -1.82,12.244 v 18.864"
               id="path317"
               inkscape:connector-curvature="0" />
            <path
               d="m 116.98,44.69 c 0.524,1.062 0.929,1.94 1.986,2.648 v -14.81 c 0,-2.307 1.595,-13.108 0,-14.81 -2.623,-2.797 -1.986,9.666 -1.986,10.318 V 44.69"
               id="path319"
               inkscape:connector-curvature="0" />
            <path
               d="m 160.01,53.46 c -3.976,0.357 -1.986,-8.381 -1.986,-11.309 V 17.9 c 0,-0.558 1.986,-0.385 1.986,1.354 V 31.163 53.46"
               id="path321"
               inkscape:connector-curvature="0" />
            <path
               d="m 164.47,53.13 c -0.604,0.093 -1.218,0.066 -1.819,0.166 0,-4.325 -0.959,-35.576 0.909,-35.576 1.87,-9.99e-4 0.91,31.1 0.91,35.41"
               id="path323"
               inkscape:connector-curvature="0" />
            <path
               d="m 168.94,52.799 c -0.602,0.095 -1.219,0.072 -1.82,0.165 0,-4.295 -0.95999,-35.245 0.91,-35.245 1.86999,0 0.91,30.801 0.91,35.08"
               id="path325"
               inkscape:connector-curvature="0" />
            <path
               d="m 173.57,52.137 c -0.608,0.16 -1.224,0.208 -1.819,0.332 0,-4.248 -0.95999,-34.749 0.91,-34.749 1.86999,0 0.909,30.2 0.909,34.417"
               id="path327"
               inkscape:connector-curvature="0" />
            <path
               d="m 178.04,51.475 c -0.604,0.14 -1.215,0.167 -1.821,0.331 0,-4.187 -0.963,-34.086 0.911,-34.086 1.873,-9.99e-4 0.91,29.599 0.91,33.755"
               id="path329"
               inkscape:connector-curvature="0" />
            <path
               d="m 182.68,50.317 c -0.65201,0.227 -1.312,0.274 -1.983,0.496 V 35.345 c 0,-3.06 -1.965,-15.231 0,-17.625 2.182,-2.658 1.983,13.033 1.983,14.083 v 18.514"
               id="path331"
               inkscape:connector-curvature="0" />
            <path
               d="m 187.14,48.828 c -0.588,0.256 -1.209,0.457 -1.818,0.662 V 33.605 c 0,-2.652 -1.753,-13.844 0,-15.885 2.137,-2.488 1.818,11.388 1.818,12.244 v 18.864"
               id="path333"
               inkscape:connector-curvature="0" />
            <path
               d="m 191.61,44.69 c -0.49899,1.115 -0.72699,1.947 -1.822,2.648 v -14.81 c 0,-2.219 -1.569,-13.215 0,-14.81 2.463,-2.501 1.822,9.604 1.822,10.318 V 44.69"
               id="path335"
               inkscape:connector-curvature="0" />
          </g>
          <g
             id="g3224"
             style="fill:#ffffff">
            <path
               d="m 154.38,9.281 c -5.77,-0.099 -37.232,-0.265 -37.231,8.77 0.001,9.106 31.451,8.771 37.231,8.769 5.813,-0.002 37.23,0.332 37.231,-8.769 0.002,-9.022 -31.43,-8.876 -37.231,-8.77"
               id="path337"
               inkscape:connector-curvature="0" />
            <path
               d="m 109.21,76.46 c 5.136,-2.763 12.995,2.265 17.953,3.723 8.604,2.531 17.758,3.562 26.725,3.393 6.962,-0.131 13.285,-1.075 19.688,-3.64 5.549,-2.223 16.225,-5.502 20.189,1.82 4.34,8.015 -10.081,15.581 -15.886,17.539 -8.427,2.843 -18.004,3.904 -26.807,2.647 -9.531,-1.361 -16.824,-5.521 -24.654,-10.838 C 123.159,88.891 104.955,80.75 109.21,76.46"
               id="path339"
               inkscape:connector-curvature="0" />
          </g>
          <path
             d="m 193.43,87.877 c -6.913,-1.701 -20.078,1.861 -15.885,11.583 6.35,-2.324 12.344,-5.545 15.885,-11.583"
             id="path341"
             inkscape:connector-curvature="0"
             style="fill:#ffe282" />
          <path
             d="m 158.52,83.41 c -7.3,6.696 3.388,16.956 10.341,17.953 7.577,1.087 11.725,-4.136 14.478,-10.01 -8.001,-2.63 -16.524,-6.704 -24.819,-7.943"
             id="path343"
             inkscape:connector-curvature="0"
             style="fill:#f4af5b" />
          <path
             d="m 175.89,78.943 c -4.558,2.467 -9.867,3.754 -15.009,4.222 -7.45,0.677 0.754,10.972 4.336,12.903 14.175,7.645 25.646,-9.331 10.673,-17.125"
             id="path345"
             inkscape:connector-curvature="0"
             style="fill:#ffe282" />
          <g
             id="g3231"
             style="fill:#f4af5b">
            <path
               d="m 149.25,83.576 c -4.311,0.927 -12.73,0.583 -13.403,5.294 -0.627,4.392 5.577,7.799 8.937,8.604 9.734,2.334 18.664,-4.409 17.044,-14.396 -4.158,0.435 -8.391,0.583 -12.578,0.49799"
               id="path347"
               inkscape:connector-curvature="0" />
            <path
               d="m 163.81,102.27 c -3.822,-2.203 -23.254,-17.577 -22.501,-5.625 0.46098,7.326 17.579,5.993 22.501,5.625"
               id="path349"
               inkscape:connector-curvature="0" />
          </g>
          <g
             id="g3235"
             style="fill:#ffe282">
            <path
               d="m 158.19,93.669 c -5.497,-3.519 -19.996,-6.213 -10.757,3.476 5.947,6.236 11.905,5.416 19.691,4.633 -2.006,-3.445 -5.441,-6.244 -8.934,-8.109"
               id="path351"
               inkscape:connector-curvature="0" />
            <path
               d="m 147.6,83.41 c -4.831,-0.013 -18.34,-2.976 -10.011,6.288 6.771,7.531 23.98,5.054 24.242,-6.619 -4.677,0.59399 -9.531,0.718 -14.231,0.331"
               id="path353"
               inkscape:connector-curvature="0" />
          </g>
          <path
             d="m 143.13,90.69 c -0.882,-1.765 -1.764,-3.53 -2.646,-5.294 -3.751,2.537 -7.502,5.075 -11.253,7.612 2.682,1.855 6.215,4.869 9.433,5.625 3.152,0.741 2.667,1.956 4.632,-0.993 1.26,-1.89 0.81,-5.082 -0.166,-6.95"
             id="path355"
             inkscape:connector-curvature="0"
             style="fill:#f4af5b" />
          <path
             d="m 128.73,92.677 c 1.915,1.503 5.056,4.099 7.446,4.632 2.692,0.60101 2.242,2.085 4.284,-0.637 1.679,-2.238 2.205,-5.235 1.425,-7.884 -2.797,-9.502 -15.63,-6.628 -21.098,-1.407 2.774,1.546 5.404,3.392 7.943,5.296"
             id="path357"
             inkscape:connector-curvature="0"
             style="fill:#ffe282" />
        </g>
        <g
           id="g3241"
           style="fill:#386666">
          <path
             d="m 95.971,89.037 c -0.497,-0.166 -0.994,-0.332 -1.49,-0.498 8.249,4.941 15.88,10.446 21.155,18.601 2.524,3.902 3.909,8.429 4.659,13.004 0.83701,5.107 -1.547,11.074 5.626,9.598 -0.291,-19.891 -10.877,-38.007 -29.95,-45.669 0.497,0.166 0.994,0.331 1.49,0.496 -0.609,-0.255 -0.727,-0.628 -1.49,-0.496 0,1.614 -0.211,3.365 0,4.964"
             id="path359"
             inkscape:connector-curvature="0" />
          <path
             d="m 93.654,87.877 c 0.683,0.496 1.546,0.94 2.316,1.159 -0.248,-1.598 0.356,-3.391 0,-4.965 -1.262,-0.597 1.88,1.359 1.654,1.159 -1.44,0.598 -2.526,2.057 -3.97,2.647 1.07,0.853 0.707,0.788 1.987,1.159 -0.662,-0.386 -1.325,-0.772 -1.987,-1.159"
             id="path361"
             inkscape:connector-curvature="0" />
          <path
             d="m 94.317,82.583 c -0.646,-0.977 -1.678,-1.79 -2.482,-2.647 -0.561,2.802 0.199,5.603 1.819,7.941 4.136,-1.613 4.915,-7.678 0.663,-10.259 0.646,0.977 1.678,1.79 2.482,2.647 0.05399,-0.882 0.10899,-1.765 0.16299,-2.647 -3.271,-0.49699 -3.409,2.004 -2.645,4.965"
             id="path363"
             inkscape:connector-curvature="0" />
          <path
             d="m 62.876,82.583 h 19.96 9.886 c 2.049,0 3.042,-3.507 1.594,-4.964 -2.094,-2.106 -16.941,0 -19.96,0 -5.5,0 -13.167,-2.756 -11.48,4.964"
             id="path365"
             inkscape:connector-curvature="0" />
          <path
             d="m 34.086,80.101 c -0.923,0.661 -1.677,1.677 -2.482,2.482 h 18.964 c 6.255,0 12.308,2.759 12.308,-4.188 0,-0.45499 -30.579,-3.552 -33.754,1.706 0.923,-0.661 1.677,-1.677 2.482,-2.482 -5.014,-0.062 -1.692,3.537 2.482,2.482"
             id="path367"
             inkscape:connector-curvature="0" />
          <path
             d="m 30.28,89.037 c 5.109,-2.355 6.167,-10.298 -1.158,-8.936 -0.197,2.016 -0.341,3.171 -0.829,5.13 0.662,-0.386 1.325,-0.772 1.987,-1.159 -0.273,1.605 0.303,3.366 0,4.965 1.165,-0.47 0.966,-0.182 1.986,-1.159 -0.662,0.386 -1.324,0.772 -1.986,1.159"
             id="path369"
             inkscape:connector-curvature="0" />
          <path
             d="m 31.272,88.539 c -0.259,0.15 -2.348,0.413 -0.992,0.498 0.221,-1.456 0.221,-3.509 0,-4.965 -0.595,-0.161 -1.45,0.297 -1.987,0.496 0.497,-0.166 0.994,-0.331 1.491,-0.496 -0.626,0.157 -0.981,-0.08 -1.491,0.496 0.969,1.292 1.851,2.819 2.979,3.971"
             id="path371"
             inkscape:connector-curvature="0" />
          <path
             d="M 4.964,129.74 C 5.266,109.529 15.04,99.129 31.272,88.538 30.765,87.377 29.273,85.37 28.293,84.567 21.106,90.274 13.575,94.233 7.88,101.678 1.831,109.586 0.141,120.033 0,129.741 1.558,129.74 3.445,130.06 4.964,129.74"
             id="path373"
             inkscape:connector-curvature="0" />
          <path
             d="M 6.123,224.06 C 5.942,207.578 5.72,191.095 5.517,174.613 5.381,163.505 5.244,152.396 5.107,141.288 5.038,135.719 7.722,128.121 0,129.742 c 0.386,31.384 0.772,62.769 1.158,94.152 1.279,-0.098 3.385,0.14999 4.965,0.166"
             id="path375"
             inkscape:connector-curvature="0" />
          <path
             d="m 15.387,240.94 c -3.56,-2.183 -6.219,-5.781 -7.777,-9.68 -1.815,-4.542 -0.039,-8.459 -6.452,-7.529 -0.396,8.078 4.921,17.344 11.749,21.511 0.42,-0.93301 2.009,-2.942 2.48,-4.302"
             id="path377"
             inkscape:connector-curvature="0" />
          <path
             d="m 62.876,251.36 c -15.668,0.269 -34.144,-1.435 -47.49,-10.424 -0.944,0.98299 -2.176,3.021 -2.646,4.302 7.841,4.335 16.081,7.501 24.935,9.106 5.055,0.91701 10.153,1.306 15.274,1.649 5.097,0.343 11.437,2.617 9.927,-4.633"
             id="path379"
             inkscape:connector-curvature="0" />
          <path
             d="m 110.53,240.94 c -6.574,4.012 -13.788,6.507 -21.357,8.102 -3.152,0.664 -26.298,2.489 -26.298,3.098 0,6.396 4.588,4.224 10.095,3.858 5.079,-0.33701 10.144,-0.698 15.148,-1.649 8.655,-1.644 17.397,-4.4 24.895,-9.106 -0.825,-1.173 -1.482,-3.124 -2.483,-4.303"
             id="path381"
             inkscape:connector-curvature="0" />
          <path
             d="m 119.8,223.89 c -0.21999,4.003 -1.476,7.722 -3.64,11.087 -2.562,3.983 -7.712,5.597 -3.31,10.257 7.042,-4.3 11.679,-13.205 11.915,-21.344 -1.537,0 -3.476,-0.34999 -4.965,0"
             id="path383"
             inkscape:connector-curvature="0" />
          <path
             d="m 120.96,129.74 c -0.386,31.384 -0.772,62.769 -1.158,94.152 7.4,1.555 5.021,-4.644 5.088,-10.076 0.133,-10.864 0.267,-21.729 0.401,-32.593 l 0.633,-51.483 c -1.559,0 -3.443,-0.31799 -4.964,0"
             id="path385"
             inkscape:connector-curvature="0" />
        </g>
        <g
           id="g3257"
           style="fill-rule:evenodd">
          <path
             d="m 62.876,86.555 c 10.603,0 25.509,-2.822 35.081,1.323 8.578,3.714 17.865,12.622 21.566,21.253 3.558,8.297 3.962,16.797 3.853,25.673 -0.19,15.474 -0.38,30.948 -0.571,46.421 -0.168,13.679 -0.336,27.356 -0.505,41.035 -0.102,8.282 -3.749,16.036 -10.61,20.826 C 95.961,254.065 72.26,254.871 53.837,253.564 37.796,252.424 14.823,250.226 6.342,234.22 2.77,227.479 3.589,219.737 3.498,212.349 3.299,196.144 3.1,179.938 2.9,163.732 2.681,145.951 -1.575,121.146 8.439,105.086 13.468,97.021 21.424,92.631 28.875,87.215 c 3.378,-2.456 12.375,-0.661 16.377,-0.661 5.875,0.001 11.749,0.001 17.624,0.001"
             id="path387"
             inkscape:connector-curvature="0"
             style="fill:#c1dde5" />
          <path
             d="m 122.28,223.89 c -0.646,21.564 -26.68,27.817 -43.935,29.202 -20.104,1.613 -41.884,1.448 -60.31,-7.775 C 11.366,241.978 1.397,232.54 3.639,223.89 c 1.996,-7.697 16.619,-8.34 22.975,-9.304 21.884,-3.319 45.672,-3.066 67.702,-1.288 6.83,0.551 26.966,1.349 27.964,10.592"
             id="path389"
             inkscape:connector-curvature="0"
             style="fill:#70adbf" />
          <path
             d="m 62.876,80.101 h 31.44 c -1.419,7.229 6.902,12.214 12.024,15.628 7.689,5.125 -0.66499,8.384 -6.786,10.424 -15.636,5.212 -33.65,5.209 -49.916,4.063 -7.795,-0.549 -15.836,-1.583 -23.275,-4.063 -2.573,-0.858 -7.817,-2.343 -9.321,-4.873 -2.289,-3.85 0.095,-3.952 3.865,-6.537 3.112,-2.134 6.185,-4.557 8.628,-7.445 0.499,-0.59 3.041,-7.198 2.274,-7.198 10.357,9.99e-4 20.712,9.99e-4 31.067,9.99e-4"
             id="path391"
             inkscape:connector-curvature="0"
             style="fill:#c1dde5" />
          <path
             d="m 76.445,89.202 c 10.891,12.764 10.65,32.228 10.424,47.985 7.907,-3.657 15.814,-7.313 23.721,-10.97 5.12,-2.368 0.25,-10.802 -2.045,-15.008 -6.287,-11.523 -18.789,-22.613 -32.1,-22.007"
             id="path393"
             inkscape:connector-curvature="0"
             style="fill:#8ec1ce" />
          <path
             d="M 102.92,93.338 C 98.734,90.201 93.08,86.039 94.316,80.101 H 31.604 c 1.134,5.995 -4.756,10.373 -9.101,13.403 14.326,-5.597 25.652,-0.993 40.126,-0.993 13.984,0 26.835,-6.432 40.291,0.827"
             id="path395"
             inkscape:connector-curvature="0"
             style="fill:#4293aa" />
          <path
             d="m 13.899,101.45 c -4.975,4.148 -7.248,16.812 -0.3,20.285 7.269,3.634 16.631,3.012 24.458,1.722 8.553,-1.41 16.609,-4.755 25.152,-6.287 7.907,-1.418 16.189,-1.446 23.992,-3.31 4.252,-1.016 9.823,-2.999 11.335,-7.529 1.915,-5.735 -3.779,-6 -7.776,-4.964 -8.394,2.175 -16.904,3.265 -25.563,3.557 -8.94,0.302 -18.574,0.249 -27.302,-1.985 -8.629,-2.208 -15.408,-8.195 -23.996,-1.489"
             id="path397"
             inkscape:connector-curvature="0"
             style="fill:#ffffff" />
          <path
             d="m 59.236,140.66 c 1.511,7.808 -7.452,13.353 -14.229,13.568 -9.686,0.308 -12.471,-5.702 -14.065,-13.899 4.912,-0.38699 27.483,-5.003 28.294,0.33101"
             id="path399"
             inkscape:connector-curvature="0"
             style="fill:#ff4000" />
          <path
             d="m 42.691,129.24 c -16.317,4.649 -12.913,24.333 4.302,20.85 17.067,-3.453 12.68,-23.53 -4.302,-20.85"
             id="path401"
             inkscape:connector-curvature="0"
             style="fill:#ff7f00" />
          <path
             d="m 52.618,138.02 c -0.982,-1.466 -1.771,-3.101 -2.646,-4.634 8.163,-4.633 16.325,-9.266 24.487,-13.899 4.103,7.236 2.691,9.721 -4.302,14.562 -4.196,2.903 -12.676,7.927 -17.539,3.971"
             id="path403"
             inkscape:connector-curvature="0"
             style="fill:#ff4000" />
          <path
             d="m 59.898,122.13 c -2.261,1.323 -11.906,7.17 -9.596,11.085 2.255,3.823 12.307,-1.493 14.561,-2.812 2.326,-1.361 11.828,-7.229 9.433,-11.087 -2.367,-3.812 -11.992,1.421 -14.398,2.814"
             id="path405"
             inkscape:connector-curvature="0"
             style="fill:#ff7f00" />
          <path
             d="m 83.229,117.17 c -1.242,7.924 -10.467,10.72 -17.373,8.935 -9.368,-2.421 -10.506,-8.99 -9.599,-17.375 4.779,1.033 27.85,3.182 26.972,8.44"
             id="path407"
             inkscape:connector-curvature="0"
             style="fill:#ff4000" />
          <path
             d="m 70.655,101.45 c -17.2,-1.054 -19.063,19.586 -1.82,21.179 17.326,1.602 18.87,-19.046 1.82,-21.179"
             id="path409"
             inkscape:connector-curvature="0"
             style="fill:#ff7f00" />
          <path
             d="m 59.072,104.92 c -3.567,3.258 -4.794,14.01 1.997,12.582 6.902,-1.452 14.014,-1.945 21.003,-2.819 4.155,-0.52 -0.262,-7.88 -2.069,-9.431 -3.664,-3.142 -15.901,-0.332 -20.931,-0.332"
             id="path411"
             inkscape:connector-curvature="0"
             style="fill:#ff7266" />
          <path
             d="m 121.78,120.64 c 3.324,7.256 -4.132,14.655 -10.591,16.546 -9.339,2.736 -13.504,-2.289 -17.209,-9.928 4.756,-1.595 25.525,-11.636 27.8,-6.618"
             id="path413"
             inkscape:connector-curvature="0"
             style="fill:#ff4000" />
          <path
             d="m 102.92,113.69 c -15.797,6.826 -6.508,26.776 9.1,19.029 15.519,-7.703 6.833,-25.702 -9.1,-19.029"
             id="path415"
             inkscape:connector-curvature="0"
             style="fill:#ff7f00" />
          <g
             id="g3274"
             style="fill:#ff4000">
            <path
               d="m 100.94,148.77 c -2.307,7.634 -12.632,8.523 -18.864,5.627 -8.784,-4.082 -8.532,-10.783 -6.288,-18.864 4.582,1.916 26.696,8.051 25.152,13.237"
               id="path417"
               inkscape:connector-curvature="0" />
            <path
               d="m 91.338,131.23 c -16.773,-4.411 -22.307,15.812 -5.626,20.353 16.897,4.601 21.908,-14.897 5.626,-20.353"
               id="path419"
               inkscape:connector-curvature="0" />
            <path
               d="m 118.97,137.02 c 1.385,7.813 -6.938,13.484 -13.899,13.899 -9.586,0.571 -12.595,-5.47 -14.395,-13.568 4.88,-0.50299 27.489,-5.636 28.294,-0.33099"
               id="path421"
               inkscape:connector-curvature="0" />
          </g>
          <path
             d="m 102.26,125.94 c -16.678,4.148 -12.047,24.629 4.798,20.684 16.955,-3.972 12.009,-23.341 -4.798,-20.684"
             id="path423"
             inkscape:connector-curvature="0"
             style="fill:#ff7f00" />
          <path
             d="m 100.44,131.4 c -3.605,7.283 -14.015,5.731 -19.526,1.82 -7.949,-5.642 -6.232,-12.186 -2.482,-19.69 4.069,2.761 24.454,13.18 22.008,17.87"
             id="path425"
             inkscape:connector-curvature="0"
             style="fill:#ff4000" />
          <path
             d="m 94.48,112.2 c -15.676,-6.49 -24.993,11.286 -9.431,19.03 15.675,7.799 24.714,-10.929 9.431,-19.03"
             id="path427"
             inkscape:connector-curvature="0"
             style="fill:#ff7f00" />
          <path
             d="m 87.2,113.86 c 2.148,-0.441 4.175,-1.152 6.123,-2.151 -5.233,-2.179 -12.499,-1.827 -15.719,3.476 3.209,-0.356 6.415,-0.767 9.596,-1.325"
             id="path429"
             inkscape:connector-curvature="0"
             style="fill:#ff7266" />
          <path
             d="m 31.934,187.98 c -2.438,7.728 -12.547,8.369 -18.864,5.463 -8.738,-4.021 -8.587,-10.648 -6.286,-18.699 4.581,1.916 26.694,8.051 25.15,13.236"
             id="path431"
             inkscape:connector-curvature="0"
             style="fill:#ff4000" />
          <path
             d="M 22.337,170.28 C 5.598,165.873 0.005,186.085 16.71,190.632 33.628,195.236 38.617,175.719 22.337,170.28"
             id="path433"
             inkscape:connector-curvature="0"
             style="fill:#ff7f00" />
          <path
             d="m 33.092,200.4 c 2.048,7.785 -5.349,14.03 -12.409,15.223 -9.622,1.625 -13.139,-4.069 -15.885,-12.078 4.865,-0.98601 26.742,-8.334 28.294,-3.145"
             id="path435"
             inkscape:connector-curvature="0"
             style="fill:#ff4000" />
          <path
             d="m 15.223,191.13 c -16.081,6.108 -9.642,25.829 6.784,20.186 16.431,-5.646 9.733,-25.047 -6.784,-20.186"
             id="path437"
             inkscape:connector-curvature="0"
             style="fill:#ff7f00" />
          <path
             d="m 45.007,201.22 c -3.569,7.187 -14.184,5.47 -19.525,1.654 -7.851,-5.607 -6.322,-12.066 -2.483,-19.525 4.161,2.793 24.556,12.955 22.008,17.871"
             id="path439"
             inkscape:connector-curvature="0"
             style="fill:#ff4000" />
          <path
             d="m 39.051,181.86 c -15.82,-6.55 -25.17,11.208 -9.433,19.031 15.776,7.843 23.846,-10.31 9.433,-19.031"
             id="path441"
             inkscape:connector-curvature="0"
             style="fill:#ff7f00" />
          <path
             d="m 33.92,246.23 c -0.612,-1.601 -0.998,-3.322 -1.49,-4.965 7.496,-2.148 14.993,-4.296 22.489,-6.444 3.714,-1.064 4.333,-2.407 5.476,1.48 0.645,2.191 1.397,3.555 -0.165,5.379 -4.186,4.887 -21.888,11.842 -26.31,4.55"
             id="path443"
             inkscape:connector-curvature="0"
             style="fill:#ff4000" />
          <path
             d="m 44.675,232.66 c -2.578,0.68201 -12.96,4.174 -11.746,8.441 1.194,4.199 12.249,1.367 14.725,0.65999 2.575,-0.735 13.09,-4.144 11.915,-8.439 -1.196,-4.367 -12.35,-1.291 -14.894,-0.662"
             id="path445"
             inkscape:connector-curvature="0"
             style="fill:#ff7f00" />
          <path
             d="m 69.331,236.47 c 0.871,-2.728 0.887,-5.38 3.747,-4.301 4.828,1.822 9.655,3.645 14.483,5.466 3.285,1.24 6.569,2.479 9.854,3.719 0.364,0.138 -1.419,6.001 -2.85,6.615 -6.586,2.827 -25.284,-2.887 -25.234,-11.499"
             id="path447"
             inkscape:connector-curvature="0"
             style="fill:#ff4000" />
          <path
             d="m 86.208,231.83 c -2.517,-0.896 -13.079,-4.362 -14.561,-0.16301 -1.515,4.292 9.103,8.373 11.583,9.266 2.536,0.912 12.854,4.588 14.396,0.33099 1.516,-4.189 -8.918,-8.643 -11.418,-9.434"
             id="path449"
             inkscape:connector-curvature="0"
             style="fill:#ff7f00" />
          <path
             d="m 81.576,243.58 c -1.914,7.639 -11.559,9.721 -18.202,7.444 -9.228,-3.161 -9.434,-10.017 -8.108,-18.2 4.856,1.475 27.328,5.17 26.31,10.756"
             id="path451"
             inkscape:connector-curvature="0"
             style="fill:#ff4000" />
          <path
             d="m 70.323,226.87 c -17.059,-3.015 -20.782,17.864 -3.64,20.851 17.138,2.985 20.508,-17.392 3.64,-20.851"
             id="path453"
             inkscape:connector-curvature="0"
             style="fill:#ff7f00" />
          <path
             d="m 84.222,145.79 c -2.348,7.698 -12.629,8.536 -18.863,5.625 -8.845,-4.13 -8.546,-10.736 -6.287,-18.863 4.582,1.917 26.694,8.05 25.15,13.238"
             id="path455"
             inkscape:connector-curvature="0"
             style="fill:#ff4000" />
          <path
             d="m 74.625,128.09 c -16.712,-3.613 -22.507,15.92 -5.626,20.518 16.797,4.576 21.923,-15.067 5.626,-20.518"
             id="path457"
             inkscape:connector-curvature="0"
             style="fill:#ff7f00" />
          <path
             d="m 40.871,127.26 c 1.522,7.91 -7.482,13.097 -14.23,13.403 -9.755,0.44099 -12.404,-5.679 -14.231,-13.899 4.943,-0.358 27.637,-4.854 28.461,0.496"
             id="path459"
             inkscape:connector-curvature="0"
             style="fill:#ff4000" />
          <path
             d="m 24.323,115.84 c -16.339,4.65 -12.84,24.179 4.303,20.683 17.062,-3.479 12.661,-23.357 -4.303,-20.683"
             id="path461"
             inkscape:connector-curvature="0"
             style="fill:#ff7f00" />
          <path
             d="m 14.229,122.3 c 8.058,3.121 17.298,2.322 25.648,0.828 C 36.27,111.894 19.858,114.229 14.229,122.3"
             id="path463"
             inkscape:connector-curvature="0"
             style="fill:#ff7266" />
          <path
             d="m 12.079,178.72 c -1.018,-2.663 -2.568,-4.619 0.304,-5.541 4.919,-1.579 9.838,-3.157 14.757,-4.736 3.595,-1.154 16.117,-6.283 11.827,3.742 -2.81,6.566 -21.99,13.389 -26.888,6.535"
             id="path465"
             inkscape:connector-curvature="0"
             style="fill:#ff4000" />
          <path
             d="m 22.503,164.82 c -2.576,0.867 -12.963,4.376 -11.583,8.769 1.376,4.379 12.394,0.98201 14.891,0.166 2.519,-0.823 13.03,-4.431 11.583,-8.769 -1.403,-4.207 -12.446,-1.035 -14.891,-0.166"
             id="path467"
             inkscape:connector-curvature="0"
             style="fill:#ff7f00" />
          <path
             d="m 32.1,156.71 c 1.013,7.978 -7.266,13.157 -14.395,13.403 -9.568,0.33 -12.422,-5.517 -14.065,-13.733 4.998,-0.36301 27.156,-4.918 28.46,0.33"
             id="path469"
             inkscape:connector-curvature="0"
             style="fill:#ff4000" />
          <path
             d="M 15.553,145.3 C -1.31,149.15 2.801,169.425 19.689,165.984 36.718,162.513 32.45,142.275 15.553,145.3"
             id="path471"
             inkscape:connector-curvature="0"
             style="fill:#ff7f00" />
          <path
             d="m 5.294,139.01 c 0.482,-1.68 1.218,-3.321 1.82,-4.963 7.268,2.742 14.535,5.484 21.803,8.227 3.589,1.354 4.888,0.653 3.514,4.431 -0.821,2.259 -0.914,3.621 -3.309,4.221 -6.551,1.636 -23.877,-3.414 -23.828,-11.916"
             id="path473"
             inkscape:connector-curvature="0"
             style="fill:#ff4000" />
          <path
             d="m 22.007,134.54 c -2.545,-0.856 -13.04,-4.636 -14.561,-0.33101 -1.514,4.283 9.101,8.513 11.583,9.432 2.503,0.927 13.083,4.345 14.561,0.166 1.504,-4.253 -9.09,-8.432 -11.583,-9.267"
             id="path475"
             inkscape:connector-curvature="0"
             style="fill:#ff7f00" />
          <path
             d="m 34.253,236.63 c -3.603,7.272 -14.047,5.767 -19.526,1.822 -7.851,-5.653 -6.337,-12.213 -2.482,-19.691 4.069,2.762 24.45,13.175 22.008,17.869"
             id="path477"
             inkscape:connector-curvature="0"
             style="fill:#ff4000" />
          <path
             d="m 28.293,217.44 c -15.771,-6.53 -25.031,11.271 -9.43,19.029 15.581,7.749 24.577,-10.991 9.43,-19.029"
             id="path479"
             inkscape:connector-curvature="0"
             style="fill:#ff7f00" />
          <path
             d="m 20.849,216.94 c 1.227,-1.241 2.657,-2.326 3.971,-3.477 5.12,5.852 10.239,11.702 15.358,17.554 2.508,2.866 4.015,2.886 1.023,5.531 -1.598,1.414 -2.729,2.989 -4.965,2.151 -6.492,-2.431 -19.484,-13.771 -15.387,-21.759"
             id="path481"
             inkscape:connector-curvature="0"
             style="fill:#ff4000" />
          <path
             d="m 37.893,220.91 c -1.896,-1.946 -9.347,-10.191 -12.743,-7.115 -3.33,3.016 3.847,11.585 5.626,13.569 1.808,2.018 9.4,10.143 12.741,7.114 3.326,-3.014 -3.837,-11.586 -5.624,-13.568"
             id="path483"
             inkscape:connector-curvature="0"
             style="fill:#ff7f00" />
          <path
             d="m 93.159,243.25 c -1.035,-1.406 -1.883,-2.989 -2.814,-4.468 6.628,-4.113 13.256,-8.227 19.884,-12.34 3.288,-2.04 3.512,-3.496 5.683,-0.068 1.294,2.044 2.366,3.042 1.241,5.294 -3.087,6.174 -17.023,16.845 -23.994,11.582"
             id="path485"
             inkscape:connector-curvature="0"
             style="fill:#ff4000" />
          <path
             d="m 99.943,227.2 c -2.229,1.611 -11.671,7.43 -9.103,11.419 2.475,3.845 12.144,-1.997 14.397,-3.476 2.27,-1.488 11.425,-7.585 8.935,-11.418 -2.464,-3.793 -11.921,2.002 -14.229,3.475"
             id="path487"
             inkscape:connector-curvature="0"
             style="fill:#ff7f00" />
          <path
             d="m 60.892,113.36 c 3.236,7.354 -3.843,14.742 -10.59,16.546 -9.288,2.482 -13.386,-2.551 -17.044,-10.094 4.65,-1.53 25.662,-11.367 27.634,-6.452"
             id="path489"
             inkscape:connector-curvature="0"
             style="fill:#ff4000" />
          <path
             d="m 61.718,117.5 c 0.985,-12.482 -22.383,0.316 -28.46,2.316 1.419,6.872 11.56,2.301 16.381,0.828 4.053,-1.239 7.957,-2.197 12.079,-3.144"
             id="path491"
             inkscape:connector-curvature="0"
             style="fill:#af6666" />
          <path
             d="m 42.193,106.24 c -15.883,6.858 -6.507,26.727 9.101,19.029 15.574,-7.682 6.773,-25.6 -9.101,-19.029"
             id="path493"
             inkscape:connector-curvature="0"
             style="fill:#ff7f00" />
          <path
             d="m 58.906,117.99 c 6.859,-13.423 -12.851,-16.245 -20.188,-9.513 -3.538,3.246 -6.475,7.296 -4.797,12.327 1.41,4.225 5.09,2.659 8.769,1.738 5.462,-1.368 10.682,-3.543 16.216,-4.552"
             id="path495"
             inkscape:connector-curvature="0"
             style="fill:#ff7568" />
          <path
             d="m 122.61,222.24 c -4.304,11.147 -29.806,13.354 -39.782,14.939 -14.171,2.252 -30.189,1.883 -44.328,-0.47099 -9.473,-1.576 -9.37,-0.28601 -9.434,-9.193 -0.076,-10.522 -0.152,-21.046 -0.228,-31.569 -0.126,-17.488 -0.252,-34.978 -0.379,-52.467 15.575,2.893 32.092,3.795 47.873,2.403 14.133,-1.247 37.617,-1.556 47.106,-13.986 -0.276,30.115 -0.552,60.23 -0.828,90.344"
             id="path497"
             inkscape:connector-curvature="0"
             style="fill:#007cff" />
          <path
             d="m 32.43,147.94 c 15.45,2.292 30.881,2.638 46.445,1.603 13.679,-0.909 35.494,-1.957 44.563,-13.847 -0.25201,25.204 -0.505,50.407 -0.758,75.61 -0.089,8.855 -2.463,11.578 -11.332,14.994 -9.55,3.68 -19.387,5.94 -29.554,7.071 -10.315,1.147 -20.829,1.492 -31.179,0.567 -5.541,-0.495 -10.951,-1.123 -16.448,-1.976 -3.276,-0.50801 -1.895,-4.104 -1.889,-7.122 0.052,-25.632 0.102,-51.266 0.152,-76.9"
             id="path499"
             inkscape:connector-curvature="0"
             style="fill:#56ff3d" />
          <path
             d="m 33.74,149.09 c 15.295,2.116 30.972,2.558 46.332,0.90901 13.097,-1.405 32.682,-2.27 41.367,-13.65 l -0.762,70.979 c -0.09,8.409 -3.047,10.896 -11.231,14.169 -9.087,3.634 -19.022,5.852 -28.735,6.978 -9.563,1.109 -19.649,1.877 -29.264,0.985 -5.307,-0.492 -10.581,-1.05 -15.869,-1.711 -3.099,-0.38701 -1.837,-3.385 -1.837,-6.246 -9.99e-4,-24.138 -9.99e-4,-48.275 -9.99e-4,-72.413"
             id="path501"
             inkscape:connector-curvature="0"
             style="fill:#ffffff;stroke:#ffffff;stroke-width:0.44444445" />
        </g>
        <g
           id="g3319"
           style="fill:#386666">
          <path
             d="m 29.784,75.467 c 1.568,-5.125 9.112,-6.691 13.733,-7.776 3.786,-0.889 7.624,-1.593 11.51,-1.778 5.181,-0.246 7.85,1.083 7.85,-4.562 0,-1.286 -37.332,0.385 -38.057,14.116 1.556,0 3.447,0.322 4.964,0"
             id="path521"
             inkscape:connector-curvature="0" />
          <path
             d="M 62.876,85.23 C 55.2,85.386 47.055,84.46399 39.711,82.169 c -5.842,-1.826 -9.44,-7.421 -14.892,-6.702 0.429,8.129 12.099,11.396 18.52,12.748 3.75,0.789 7.541,1.364 11.355,1.728 4.825,0.46 9.668,1.853 8.182,-4.713"
             id="path523"
             inkscape:connector-curvature="0" />
          <path
             d="m 96.137,75.467 c -1.317,5.007 -9.37,6.587 -13.735,7.612 -3.845,0.903 -7.742,1.526 -11.674,1.9 -5.188,0.494 -7.851,-1.513 -7.851,4.44 0,1.363 37.492,-0.383 38.225,-13.952 -1.558,0 -3.448,-0.321 -4.965,0"
             id="path525"
             inkscape:connector-curvature="0" />
          <path
             d="m 62.876,65.54 c 7.61,-0.307 16.065,0.791 23.332,3.061 5.916,1.848 9.319,7.601 14.893,6.867 -0.444,-8.221 -12.01,-11.54 -18.521,-12.912 -3.803,-0.801 -7.639,-1.42 -11.522,-1.606 -4.781,-0.23 -9.734,-2.27 -8.182,4.59"
             id="path527"
             inkscape:connector-curvature="0" />
        </g>
        <g
           id="g3325"
           style="fill-rule:evenodd">
          <path
             d="m 62.876,63.058 c -7.569,-0.287 -35.575,0.963 -35.575,12.41 0,11.482 28.083,12.246 35.575,12.246 7.492,0 35.742,-0.717 35.742,-12.246 C 98.619,63.973 70.447,62.771 62.876,63.058"
             id="path529"
             inkscape:connector-curvature="0"
             style="fill:#c1dde5" />
          <path
             d="m 62.712,85.562 c 5.352,-0.17799 34.703,-0.825 32.596,-10.756 -8.242,7.969 -21.648,8.439 -32.596,8.439 -10.106,0 -25.479,-0.024 -32.432,-8.439 -2.093,9.921 27.064,10.577 32.432,10.756"
             id="path531"
             inkscape:connector-curvature="0"
             style="fill:#4293aa" />
          <path
             d="m 94.317,71.496 c -4.371,9.667 -22.844,9.269 -31.44,9.267 -8.47,-0.002 -27.15,0.458 -31.272,-9.267 h 62.712"
             id="path533"
             inkscape:connector-curvature="0"
             style="fill:#164c4c" />
        </g>
        <g
           id="g3330"
           style="fill:#386666">
          <path
             d="m 26.474,39.064 c 4.291,-4.238 11.743,-4.772 17.386,-5.662 3.735,-0.589 7.631,-0.901 11.406,-1.122 2.072,-0.121 12.75,0.219 7.776,-5.13 -2.371,-2.549 -19.425,1.223 -22.986,1.784 -5.621,0.886 -17.811,2.874 -18.546,10.129 1.549,9.99e-4 3.459,0.335 4.964,9.99e-4"
             id="path535"
             inkscape:connector-curvature="0" />
          <path
             d="M 26.474,67.36 V 49.889 c 0,-1.506 1.502,-16.636 -4.964,-10.825 -1.767,1.587 0,15.034 0,17.471 0,5.303 -2.599,12.639 4.964,10.825"
             id="path537"
             inkscape:connector-curvature="0" />
          <path
             d="M 63.042,74.309 C 55.414,74.441 47.636,73.731 40.126,72.406 34.205,71.361 27.248,66.362 21.51,67.36 c 0.764,7.53 13.594,9.34 19.361,10.259 4.425,0.70499 8.903,1.031 13.366,1.403 4.855,0.404 10.403,2.078 8.805,-4.713"
             id="path539"
             inkscape:connector-curvature="0" />
          <path
             d="m 99.611,67.36 c -4.291,4.24 -11.742,4.771 -17.386,5.663 -3.735,0.59 -7.631,0.901 -11.406,1.122 -2.072,0.121 -12.751,-0.21999 -7.777,5.129 2.369,2.547 19.429,-1.222 22.989,-1.783 5.622,-0.88599 17.807,-2.875 18.544,-10.13 -1.549,-9.99e-4 -3.458,-0.334 -4.964,-9.99e-4"
             id="path541"
             inkscape:connector-curvature="0" />
          <path
             d="m 99.611,39.064 v 17.471 c 0,1.506 -1.502,16.636 4.964,10.825 1.767,-1.587 0,-15.034 0,-17.471 0,-5.303 2.599,-12.639 -4.964,-10.825"
             id="path543"
             inkscape:connector-curvature="0" />
          <path
             d="m 63.042,32.115 c 7.627,-0.132 15.409,0.576 22.918,1.903 5.92,1.046 12.877,6.043 18.615,5.046 C 103.811,31.535 90.982,29.725 85.216,28.806 80.79,28.101 76.312,27.773 71.848,27.402 66.993,26.998 61.443,25.324 63.042,32.115"
             id="path545"
             inkscape:connector-curvature="0" />
        </g>
        <g
           id="g3338"
           style="fill-rule:evenodd">
          <path
             d="M 102.09,67.36 C 98.908,78.311 67.714,77.063 59.069,76.792 50.77,76.531 42.207,75.793 34.166,73.648 25.438,71.32 23.988,69.248 23.988,60.677 V 40.958 c 0,-3.03 1.979,-1.894 4.801,-1.894 h 39.759 32.819 c 1.526,0 0.723,24.857 0.723,28.296"
             id="path547"
             inkscape:connector-curvature="0"
             style="fill:#4293aa" />
          <g
             id="g3341"
             style="fill:#bfc6d6">
            <path
               d="m 61.884,76.792 c 3.842,0.529 1.987,-31.29 1.987,-36.336 0,-1.674 -1.987,-2.159 -1.987,-0.756 v 11.814 25.278"
               id="path549"
               inkscape:connector-curvature="0" />
            <path
               d="m 57.086,76.625 c 4.014,0.482 1.986,-9.53 1.986,-12.395 V 39.227 c 0,-1.036 -1.986,0.458 -1.986,2.231 v 12.087 23.08"
               id="path551"
               inkscape:connector-curvature="0" />
            <path
               d="m 52.454,76.46 c 3.445,0.326 1.82,-32.015 1.82,-37.234 0,-1.058 -1.82,0.597 -1.82,2.221 V 53.481 76.46"
               id="path553"
               inkscape:connector-curvature="0" />
            <path
               d="m 47.653,75.964 c 4.027,0.83 1.986,-10.019 1.986,-12.881 V 39.238 c 0,-1.12 -1.986,0.585 -1.986,2.358 v 12.613 21.755"
               id="path555"
               inkscape:connector-curvature="0" />
            <path
               d="m 42.855,75.467 c 0.64,0.12299 1.34,0.06 1.986,0.166 0,-4.509 1.048,-36.569 -0.993,-36.569 -2.042,0 -0.993,31.91 -0.993,36.403"
               id="path557"
               inkscape:connector-curvature="0" />
            <path
               d="m 38.222,74.641 c 0.648,0.185 1.325,0.22 1.987,0.331 V 58.095 c 0,-2.23 1.722,-17.772 0,-19.03 -2.999,-2.191 -1.987,14.009 -1.987,15.57 v 20.006"
               id="path559"
               inkscape:connector-curvature="0" />
            <path
               d="m 33.424,73.482 c 0.65,0.231 1.315,0.277 1.986,0.49699 0,-4.354 1.051,-34.914 -0.993,-34.914 -2.044,-9.99e-4 -0.993,30.109 -0.993,34.417"
               id="path561"
               inkscape:connector-curvature="0" />
            <path
               d="m 28.79,71.827 c 0.582,0.322 1.216,0.56 1.82,0.827 v -15.7 c 0,-2.996 1.975,-15.596 0,-17.89 -2.011,-2.335 -1.82,13.021 -1.82,14.154 v 18.609"
               id="path563"
               inkscape:connector-curvature="0" />
            <path
               d="m 23.992,67.525 c 0.521,1.063 0.929,1.941 1.986,2.648 V 55.729 c 0,-2.646 1.806,-14.706 0,-16.665 -2.521,-2.734 -1.986,11.252 -1.986,12.103 v 16.358"
               id="path565"
               inkscape:connector-curvature="0" />
            <path
               d="m 23.992,67.525 c 0.521,1.063 0.929,1.941 1.986,2.648 V 55.729 c 0,-2.646 1.806,-14.706 0,-16.665 -2.521,-2.734 -1.986,11.252 -1.986,12.103 v 16.358"
               id="path567"
               inkscape:connector-curvature="0" />
            <path
               d="M 68.835,76.625 C 64.82,77.108 66.848,67.095 66.848,64.23 V 39.227 c 0,-1.036 1.987,0.458 1.987,2.231 v 12.087 23.08"
               id="path569"
               inkscape:connector-curvature="0" />
            <path
               d="m 73.467,76.46 c -3.439,0.32 -1.82,-32.011 -1.82,-37.234 0,-1.059 1.82,0.597 1.82,2.221 V 53.481 76.46"
               id="path571"
               inkscape:connector-curvature="0" />
            <path
               d="M 78.265,75.964 C 74.238,76.794 76.279,65.946 76.279,63.083 V 39.238 c 0,-1.12 1.986,0.585 1.986,2.358 v 12.613 21.755"
               id="path573"
               inkscape:connector-curvature="0" />
            <path
               d="m 83.063,75.467 c -0.64001,0.12299 -1.34,0.061 -1.986,0.166 0,-4.509 -1.048,-36.569 0.993,-36.569 2.041,0 0.993,31.91 0.993,36.403"
               id="path575"
               inkscape:connector-curvature="0" />
            <path
               d="m 87.698,74.641 c -0.602,0.164 -1.209,0.228 -1.82,0.331 V 58.095 c 0,-2.06 -1.603,-17.983 0,-19.03 2.835,-1.851 1.82,13.924 1.82,15.57 v 20.006"
               id="path577"
               inkscape:connector-curvature="0" />
            <path
               d="m 92.497,73.482 c -0.65,0.231 -1.314,0.276 -1.986,0.49699 0,-4.354 -1.051,-34.914 0.993,-34.914 2.044,-9.99e-4 0.993,30.11 0.993,34.417"
               id="path579"
               inkscape:connector-curvature="0" />
            <path
               d="m 97.128,71.827 c -0.582,0.322 -1.215,0.561 -1.82,0.827 v -15.7 c 0,-2.996 -1.975,-15.596 0,-17.89 2.011,-2.335 1.82,13.021 1.82,14.154 v 18.609"
               id="path581"
               inkscape:connector-curvature="0" />
            <path
               d="m 101.93,67.525 c -0.521,1.063 -0.929,1.94 -1.984,2.648 V 55.729 c 0,-2.646 -1.806,-14.708 0,-16.665 2.519,-2.73 1.984,11.252 1.984,12.103 v 16.358"
               id="path583"
               inkscape:connector-curvature="0" />
          </g>
          <path
             d="m 63.042,29.633 c -5.957,-0.104 -39.017,-0.049 -39.05,9.432 -0.033,9.569 33.103,9.432 39.05,9.432 5.948,0 39.084,0.139 39.051,-9.432 C 102.06,29.583 69,29.529 63.042,29.633"
             id="path585"
             inkscape:connector-curvature="0"
             style="fill:#ffffff" />
          <path
             d="m 97.791,261.12 c -2.063,-8.81 11.202,-5.329 17.063,-5.434 l 10.35,-0.18599 c 0.353,-0.006 0.893,6.106 -0.192,7.191 -4.99,4.988 -24.422,6.768 -27.221,-1.571"
             id="path587"
             inkscape:connector-curvature="0"
             style="fill:#ff4000" />
          <path
             d="m 111.36,250.86 c -2.772,0.058 -13.723,0.571 -13.569,5.129 0.157,4.634 11.353,4.4 14.065,4.303 2.755,-0.099 13.604,-0.52499 13.569,-4.965 -0.035,-4.443 -11.489,-4.573 -14.065,-4.467"
             id="path589"
             inkscape:connector-curvature="0"
             style="fill:#ff7f00" />
          <path
             d="m 4.964,268.57 c -0.179,-1.743 -0.111,-3.543 -0.166,-5.295 9.266,-0.16498 18.532,-0.32999 27.798,-0.495 0,8.921 -3.124,10.307 -12.161,10.837 -4.78,0.28101 -13.686,0.75601 -15.471,-5.047"
             id="path591"
             inkscape:connector-curvature="0"
             style="fill:#ff4000" />
          <path
             d="m 18.367,258.15 c -2.773,0.056 -13.665,0.616 -13.569,5.127 0.096,4.497 11.431,4.51 14.065,4.47 2.787,-0.042 13.864,-0.52902 13.733,-5.132 -0.128,-4.5 -11.563,-4.575 -14.229,-4.465"
             id="path593"
             inkscape:connector-curvature="0"
             style="fill:#ff7f00" />
          <path
             d="m 122.78,249.04 c -0.409,-1.529 -0.115,-3.541 -0.166,-5.131 9.267,-0.164 18.533,-0.32901 27.8,-0.493 0,8.782 -3.248,10.308 -12.163,10.837 -4.491,0.26601 -14.073,0.51001 -15.471,-5.213"
             id="path595"
             inkscape:connector-curvature="0"
             style="fill:#ff4000" />
          <path
             d="m 136.18,238.78 c -2.794,0.061 -13.693,0.56401 -13.568,5.128 0.124,4.507 11.406,4.511 14.064,4.471 2.685,-0.04 13.805,-0.551 13.735,-5.131 -0.067,-4.489 -11.615,-4.576 -14.231,-4.468"
             id="path597"
             inkscape:connector-curvature="0"
             style="fill:#ff7f00" />
          <path
             d="m 196.08,250.37 c -4.962,-7.27 -20.245,-6.352 -24.24,1.654 -2.008,4.021 -0.433,10.239 4.331,8.887 7.133,-2.024 14.267,-4.05 21.399,-6.075 -0.45898,-1.376 -0.72398,-3.243 -1.49,-4.466"
             id="path599"
             inkscape:connector-curvature="0"
             style="fill:#ffd12d" />
          <path
             d="m 187.64,265.76 c -14.878,2.769 -20.763,-12.535 -4.305,-15.555 14.81,-2.717 20.459,12.074 4.305,15.555"
             id="path601"
             inkscape:connector-curvature="0"
             style="fill:#ef7c00" />
          <path
             d="m 177.88,267.41 c -2.063,-8.813 11.198,-5.331 17.062,-5.436 3.45,-0.062 6.899,-0.12299 10.35,-0.185 0.356,-0.006 0.893,6.105 -0.19099,7.192 -5.002,5.02 -24.42,6.748 -27.221,-1.571"
             id="path603"
             inkscape:connector-curvature="0"
             style="fill:#ff4000" />
          <path
             d="m 191.45,257.15 c -2.794,0.057 -13.696,0.56601 -13.569,5.128 0.12801,4.596 11.389,4.401 14.063,4.306 2.747,-0.099 13.666,-0.44998 13.57,-4.965 -0.094,-4.454 -11.44,-4.577 -14.064,-4.469"
             id="path605"
             inkscape:connector-curvature="0"
             style="fill:#ff7f00" />
          <path
             d="m 141.47,262.12 c -1.668,7.362 -11.572,8.593 -17.54,6.286 -8.597,-3.322 -8.548,-9.779 -6.951,-17.537 4.596,1.615 25.651,5.984 24.491,11.251"
             id="path607"
             inkscape:connector-curvature="0"
             style="fill:#ff4000" />
          <path
             d="m 131.55,245.73 c -16.07,-3.29 -20.426,16.156 -4.303,19.692 16.252,3.565 20.092,-15.433 4.303,-19.692"
             id="path609"
             inkscape:connector-curvature="0"
             style="fill:#ff7f00" />
          <path
             d="m 209.81,214.79 c -2.112,-8.644 11.819,-5.187 17.466,-5.292 4.581,-0.086 14.314,-0.26199 8.017,7.279 -4.33,5.184 -22.803,4.816 -25.483,-1.987"
             id="path611"
             inkscape:connector-curvature="0"
             style="fill:#ef7c00" />
          <path
             d="m 222.72,205.03 c -2.572,0.063 -13.044,0.522 -12.903,4.799 0.145,4.41 10.847,4.225 13.404,4.139 2.572,-0.087 13.048,-0.505 12.903,-4.799 -0.148,-4.409 -10.848,-4.225 -13.404,-4.139"
             id="path613"
             inkscape:connector-curvature="0"
             style="fill:#ffd12d" />
          <path
             d="m 189.46,234.32 c -0.407,-1.467 -0.112,-3.435 -0.162,-4.964 7.116,-0.134 14.231,-0.267 21.348,-0.39999 3.791,-0.071 4.929,-1.253 5.044,2.719 0.067,2.338 0.468,3.646 -1.489,5.047 -5.006,3.581 -22.403,5.188 -24.741,-2.402"
             id="path615"
             inkscape:connector-curvature="0"
             style="fill:#ef7c00" />
          <path
             d="m 202.2,224.55 c -2.531,0.068 -12.998,0.51399 -12.905,4.799 0.093,4.295 10.905,4.355 13.402,4.304 2.564,-0.054 13.089,-0.685 12.907,-4.964 -0.183,-4.291 -10.848,-4.272 -13.404,-4.139"
             id="path617"
             inkscape:connector-curvature="0"
             style="fill:#ffd12d" />
          <path
             d="m 247.21,213.63 c -1.673,7.359 -11.57,8.595 -17.542,6.287 -8.682,-3.355 -8.509,-9.89 -6.948,-17.702 4.599,1.646 25.649,6.137 24.49,11.415"
             id="path619"
             inkscape:connector-curvature="0"
             style="fill:#ef7c00" />
          <path
             d="m 237.28,197.25 c -16.064,-3.293 -20.448,16.251 -4.299,19.688 16.063,3.419 19.909,-15.49 4.299,-19.688"
             id="path621"
             inkscape:connector-curvature="0"
             style="fill:#ffd12d" />
          <path
             d="m 237.94,234.81 c -1.701,-6.979 3.696,-5.035 8.786,-5.132 5.786,-0.11 11.571,-0.22 17.357,-0.33 0,8.342 -3.146,9.817 -11.582,10.344 -4.671,0.28999 -12.499,0.28299 -14.561,-4.882"
             id="path623"
             inkscape:connector-curvature="0"
             style="fill:#ef7c00" />
          <path
             d="m 250.68,224.88 c -2.547,0.069 -12.938,0.70799 -12.739,4.964 0.19701,4.206 10.71,4.204 13.237,4.138 2.571,-0.068 13.05,-0.519 12.906,-4.799 -0.143,-4.293 -10.87,-4.376 -13.404,-4.303"
             id="path625"
             inkscape:connector-curvature="0"
             style="fill:#ffd12d" />
        </g>
      </g>
    </g>
  </g>
</svg>
