<?xml version="1.0" encoding="UTF-8" standalone="no"?>
<!-- Created with Inkscape (http://www.inkscape.org/) -->

<svg
   xmlns:dc="http://purl.org/dc/elements/1.1/"
   xmlns:cc="http://creativecommons.org/ns#"
   xmlns:rdf="http://www.w3.org/1999/02/22-rdf-syntax-ns#"
   xmlns:svg="http://www.w3.org/2000/svg"
   xmlns="http://www.w3.org/2000/svg"
   xmlns:sodipodi="http://sodipodi.sourceforge.net/DTD/sodipodi-0.dtd"
   xmlns:inkscape="http://www.inkscape.org/namespaces/inkscape"
   width="1268.7516"
   height="959.64496"
   id="svg5059"
   version="1.1"
   inkscape:version="0.48.4 r9939"
   sodipodi:docname="Quarantine.svg">
  <defs
     id="defs5061">
    <path
       transform="matrix(10,0,0,-10,260,260)"
       id="p"
       d="M 2.8117,-1.046 A 3,3 0 0 1 0.5,2.958 V 4.5119 A 10.5,10.5 0 0 1 2,25.3078 v 0.5583 A 15,15 0 0 0 14.7975,8.5433 15,15 0 0 0 23.4007,-11.201 l -0.4835,0.2792 A 10.5,10.5 0 0 1 4.1574,-1.8229 z m 3.4148,8.871 a 10,10 0 0 1 -12.453,0 9.5,9.5 0 0 0 -2.1756,2.7417 13.5,13.5 0 0 0 16.8042,0 A 10,10 0 0 0 6.2265,7.825 z"
       inkscape:connector-curvature="0" />
    <path
       transform="scale(10,-10) translate(26,-26)"
       id="p-5"
       d="M 2.8117,-1.046 A 3 3 0 0 1 .5,2.958 V 4.5119 A 10.5 10.5 0 0 1 2,25.3078 V 25.8661 A 15 15 0 0 0 14.7975,8.5433 15 15 0 0 0 23.4007,-11.201 L 22.9172,-10.9218 A 10.5 10.5 0 0 1 4.1574,-1.8229 z M 6.2265,7.825 A 10 10 0 0 1 -6.2265,7.825 9.5 9.5 0 0 0 -8.4021,10.5667 13.5 13.5 0 0 0 8.4021,10.5667 10 10 0 0 0 6.2265,7.825 z" />
  </defs>
  <sodipodi:namedview
     id="base"
     pagecolor="#ffffff"
     bordercolor="#666666"
     borderopacity="1.0"
     inkscape:pageopacity="0.0"
     inkscape:pageshadow="2"
     inkscape:zoom="0.49497475"
     inkscape:cx="447.50762"
     inkscape:cy="482.91261"
     inkscape:document-units="px"
     inkscape:current-layer="g5665"
     showgrid="false"
     inkscape:window-width="1600"
     inkscape:window-height="848"
     inkscape:window-x="0"
     inkscape:window-y="24"
     inkscape:window-maximized="1"
     fit-margin-top="0"
     fit-margin-left="0"
     fit-margin-right="0"
     fit-margin-bottom="0" />
  <metadata
     id="metadata5064">
    <rdf:RDF>
      <cc:Work
         rdf:about="">
        <dc:format>image/svg+xml</dc:format>
        <dc:type
           rdf:resource="http://purl.org/dc/dcmitype/StillImage" />
        <dc:title></dc:title>
      </cc:Work>
    </rdf:RDF>
  </metadata>
  <g
     inkscape:label="Layer 1"
     inkscape:groupmode="layer"
     id="layer1"
     transform="translate(258.59906,8.2979956)">
    <rect
       style="fill:#000000;fill-opacity:0.36470588;stroke:none"
       id="rect5086"
       width="1268.7516"
       height="959.64496"
       x="-258.59906"
       y="-8.2979956"
       rx="100.00043"
       inkscape:export-filename="/media/kokamoto/Storage/TeachingApp/givemefever_prototype/images/ParticipantInterventions/Qaurantine.png"
       inkscape:export-xdpi="49.987236"
       inkscape:export-ydpi="49.987236" />
    <g
       id="g5665"
       transform="matrix(0.96024465,0,0,1.4264264,186.65333,129.91024)"
       inkscape:export-filename="/media/kokamoto/Storage/TeachingApp/givemefever_prototype/images/ParticipantInterventions/BlockTransmission.png"
       inkscape:export-xdpi="49.987236"
       inkscape:export-ydpi="49.987236">
      <text
         xml:space="preserve"
         style="font-size:20px;font-style:normal;font-variant:normal;font-weight:normal;font-stretch:normal;line-height:125%;letter-spacing:0px;word-spacing:0px;fill:#000000;fill-opacity:1;stroke:none;font-family:Times;-inkscape-font-specification:Ubuntu"
         x="-246.18672"
         y="556.80829"
         id="text5670"
         sodipodi:linespacing="125%"
         inkscape:export-filename="/media/kokamoto/Storage/TeachingApp/givemefever_prototype/images/ParticipantInterventions/Qaurantine.png"
         inkscape:export-xdpi="49.987236"
         inkscape:export-ydpi="49.987236"><tspan
           sodipodi:role="line"
           x="-246.18672"
           y="556.80829"
           style="font-size:128.16682434px;font-style:normal;font-family:Ubuntu;-inkscape-font-specification:Ubuntu"
           id="tspan6179">Quarantine me!</tspan></text>
      <path
         style="fill:#ffff00;fill-opacity:1;stroke:none"
         d="m 229.33349,247.0013 0,-107.81571 162.93888,0 162.93888,0 1.16378,5.23782 c 1.60162,7.20836 -2.11872,33.75559 -6.55771,46.7939 -13.05761,38.35312 -41.05935,70.8491 -86.28721,100.13617 -24.44976,15.83233 -50.65376,28.06565 -82.65497,38.58748 -44.54305,14.64553 -83.46874,21.61789 -134.26216,24.04902 l -17.27949,0.82705 0,-107.81573 z"
         id="path3035"
         inkscape:connector-curvature="0"
         inkscape:export-filename="/media/kokamoto/Storage/TeachingApp/givemefever_prototype/images/ParticipantInterventions/Qaurantine.png"
         inkscape:export-xdpi="49.987236"
         inkscape:export-ydpi="49.987236" />
      <path
         style="fill:#000000;fill-opacity:1;stroke:none"
         d="M 211.75352,353.60167 C 167.30185,350.2518 144.54456,347.07159 113.02994,339.80564 72.272327,330.40865 28.991708,313.99441 -3.728136,295.52502 -70.513013,257.82692 -111.16554,205.30209 -116.31257,150.06109 l -1.26936,-13.62358 173.773297,0 173.773283,0 0,108.98866 0,108.98866 -6.23011,-0.18988 c -3.42658,-0.1044 -8.81803,-0.38492 -11.98102,-0.62328 z"
         id="path3039"
         inkscape:connector-curvature="0"
         inkscape:export-filename="/media/kokamoto/Storage/TeachingApp/givemefever_prototype/images/ParticipantInterventions/Qaurantine.png"
         inkscape:export-xdpi="49.987236"
         inkscape:export-ydpi="49.987236" />
      <path
         style="fill:#000000;fill-opacity:1;stroke:none"
         d="m 228.57793,40.422031 0,-98.869773 7.37552,0 c 10.64304,0 44.98438,3.693507 62.29734,6.70025 72.87486,12.65619 140.53865,40.997201 184.9655,77.472902 14.62195,12.00502 33.75885,31.77111 42.28339,43.673547 14.12424,19.721091 26.70559,46.610613 29.41712,62.871813 l 1.17077,7.02104 -163.75482,0 -163.75482,0 0,-98.869779 z"
         id="path3041"
         inkscape:connector-curvature="0"
         inkscape:export-filename="/media/kokamoto/Storage/TeachingApp/givemefever_prototype/images/ParticipantInterventions/Qaurantine.png"
         inkscape:export-xdpi="49.987236"
         inkscape:export-ydpi="49.987236" />
      <path
         style="fill:#ffff00;fill-opacity:1;stroke:none"
         d="M -115.89712,127.60088 C -105.53886,65.865305 -43.857603,6.9232248 45.576952,-26.702364 95.174099,-45.349884 154.10804,-56.421736 212.75559,-58.11001 l 16.15464,-0.465036 0,92.793778 0,92.793788 0.26211,9.78172 c -1.01388,0.58987 -9.68209,0.18314 -13.77852,0.30595 l -166.442382,0 -166.442408,0 1.59385,-9.49931 z"
         id="path3037"
         inkscape:connector-curvature="0"
         sodipodi:nodetypes="cssccccccccc"
         inkscape:export-filename="/media/kokamoto/Storage/TeachingApp/givemefever_prototype/images/ParticipantInterventions/Qaurantine.png"
         inkscape:export-xdpi="49.987236"
         inkscape:export-ydpi="49.987236" />
    </g>
  </g>
</svg>
