<?xml version="1.0" encoding="UTF-8" standalone="no"?>
<!-- Created with Inkscape (http://www.inkscape.org/) -->

<svg
   xmlns:dc="http://purl.org/dc/elements/1.1/"
   xmlns:cc="http://creativecommons.org/ns#"
   xmlns:rdf="http://www.w3.org/1999/02/22-rdf-syntax-ns#"
   xmlns:svg="http://www.w3.org/2000/svg"
   xmlns="http://www.w3.org/2000/svg"
   xmlns:sodipodi="http://sodipodi.sourceforge.net/DTD/sodipodi-0.dtd"
   xmlns:inkscape="http://www.inkscape.org/namespaces/inkscape"
   width="1268.7516"
   height="959.64496"
   id="svg5059"
   version="1.1"
   inkscape:version="0.48.4 r9939"
   sodipodi:docname="Vaccination.svg"
   inkscape:export-filename="/media/kokamoto/Storage/TeachingApp/givemefever_prototype/images/ParticipantInterventions/Vaccination.png"
   inkscape:export-xdpi="50.009998"
   inkscape:export-ydpi="50.009998">
  <defs
     id="defs5061">
    <path
       transform="matrix(10,0,0,-10,260,260)"
       id="p"
       d="M 2.8117,-1.046 A 3,3 0 0 1 0.5,2.958 V 4.5119 A 10.5,10.5 0 0 1 2,25.3078 v 0.5583 A 15,15 0 0 0 14.7975,8.5433 15,15 0 0 0 23.4007,-11.201 l -0.4835,0.2792 A 10.5,10.5 0 0 1 4.1574,-1.8229 z m 3.4148,8.871 a 10,10 0 0 1 -12.453,0 9.5,9.5 0 0 0 -2.1756,2.7417 13.5,13.5 0 0 0 16.8042,0 A 10,10 0 0 0 6.2265,7.825 z"
       inkscape:connector-curvature="0" />
    <path
       transform="scale(10,-10) translate(26,-26)"
       id="p-5"
       d="M 2.8117,-1.046 A 3 3 0 0 1 .5,2.958 V 4.5119 A 10.5 10.5 0 0 1 2,25.3078 V 25.8661 A 15 15 0 0 0 14.7975,8.5433 15 15 0 0 0 23.4007,-11.201 L 22.9172,-10.9218 A 10.5 10.5 0 0 1 4.1574,-1.8229 z M 6.2265,7.825 A 10 10 0 0 1 -6.2265,7.825 9.5 9.5 0 0 0 -8.4021,10.5667 13.5 13.5 0 0 0 8.4021,10.5667 10 10 0 0 0 6.2265,7.825 z" />
  </defs>
  <sodipodi:namedview
     id="base"
     pagecolor="#ffffff"
     bordercolor="#666666"
     borderopacity="1.0"
     inkscape:pageopacity="0.0"
     inkscape:pageshadow="2"
     inkscape:zoom="0.20167841"
     inkscape:cx="2516.0706"
     inkscape:cy="964.0359"
     inkscape:document-units="px"
     inkscape:current-layer="layer1"
     showgrid="false"
     inkscape:window-width="1600"
     inkscape:window-height="848"
     inkscape:window-x="0"
     inkscape:window-y="24"
     inkscape:window-maximized="1"
     fit-margin-top="0"
     fit-margin-left="0"
     fit-margin-right="0"
     fit-margin-bottom="0"
     showguides="true"
     inkscape:guide-bbox="true" />
  <metadata
     id="metadata5064">
    <rdf:RDF>
      <cc:Work
         rdf:about="">
        <dc:format>image/svg+xml</dc:format>
        <dc:type
           rdf:resource="http://purl.org/dc/dcmitype/StillImage" />
        <dc:title></dc:title>
      </cc:Work>
    </rdf:RDF>
  </metadata>
  <g
     inkscape:label="Layer 1"
     inkscape:groupmode="layer"
     id="layer1"
     transform="translate(258.59906,8.2979956)">
    <rect
       style="fill:#000000;fill-opacity:0.36470588;stroke:none"
       id="rect5086"
       width="1268.7516"
       height="959.64496"
       x="-258.59906"
       y="-8.2979956"
       rx="100.00043"
       inkscape:export-filename="/media/kokamoto/Storage/TeachingApp/givemefever_prototype/images/ParticipantInterventions/Vaccination.png"
       inkscape:export-xdpi="50.009998"
       inkscape:export-ydpi="50.009998" />
    <g
       id="g5665"
       transform="matrix(0.96024465,0,0,1.4264264,108.65333,129.91024)">
      <text
         xml:space="preserve"
         style="font-size:20px;font-style:normal;font-variant:normal;font-weight:normal;font-stretch:normal;line-height:125%;letter-spacing:0px;word-spacing:0px;fill:#000000;fill-opacity:1;stroke:none;font-family:Times;-inkscape-font-specification:Times"
         x="-111.72435"
         y="556.80817"
         id="text5670"
         sodipodi:linespacing="125%"
         inkscape:export-filename="/media/kokamoto/Storage/TeachingApp/givemefever_prototype/images/ParticipantInterventions/path4324-6.png"
         inkscape:export-xdpi="50.009998"
         inkscape:export-ydpi="50.009998"><tspan
           sodipodi:role="line"
           x="-111.72435"
           y="556.80817"
           style="font-size:128.16682434px;font-style:normal;font-family:Ubuntu;-inkscape-font-specification:Ubuntu Italic"
           id="tspan6179">Vaccinate me!</tspan></text>
      <rect
         style="fill:none;stroke:#000000;stroke-width:21.36113548;stroke-linecap:round;stroke-linejoin:round;stroke-miterlimit:4;stroke-opacity:1;stroke-dasharray:none;stroke-dashoffset:0"
         id="rect2993"
         width="597.20856"
         height="350.34946"
         x="1203.4482"
         y="-0.99579555"
         rx="44.361279" />
      <rect
         style="fill:none;stroke:#000000;stroke-width:21.3611393;stroke-linecap:round;stroke-linejoin:round;stroke-miterlimit:4;stroke-opacity:1;stroke-dasharray:none;stroke-dashoffset:0"
         id="rect3015"
         width="511.77441"
         height="144.21655"
         x="1282.2968"
         y="-147.81604" />
      <rect
         style="fill:none;stroke:#000000;stroke-width:21.36113739;stroke-linecap:round;stroke-linejoin:round;stroke-miterlimit:4;stroke-opacity:1;stroke-dasharray:none;stroke-dashoffset:0"
         id="rect2995-5"
         width="139.84534"
         height="152.22858"
         x="1720.2799"
         y="300.60709"
         rx="53.422005" />
      <rect
         style="fill:none;stroke:#000000;stroke-width:21.36113739;stroke-linecap:round;stroke-linejoin:round;stroke-miterlimit:4;stroke-opacity:1;stroke-dasharray:none;stroke-dashoffset:0"
         id="rect2995-5-5"
         width="139.84534"
         height="152.22858"
         x="1423.6304"
         y="300.60709"
         rx="53.422005" />
      <rect
         style="fill:none;stroke:#000000;stroke-width:21.36113739;stroke-linecap:round;stroke-linejoin:round;stroke-miterlimit:4;stroke-opacity:1;stroke-dasharray:none;stroke-dashoffset:0"
         id="rect2995-5-5-6"
         width="139.84534"
         height="152.22858"
         x="1274.8586"
         y="269.41022"
         rx="53.422005" />
      <rect
         style="fill:none;stroke:#000000;stroke-width:21.36113739;stroke-linecap:round;stroke-linejoin:round;stroke-miterlimit:4;stroke-opacity:1;stroke-dasharray:none;stroke-dashoffset:0"
         id="rect2995-5-5-6-1"
         width="139.84534"
         height="152.22858"
         x="1112.995"
         y="269.41022"
         rx="53.422005" />
      <path
         style="fill:#000000;stroke:#000000;stroke-width:25;stroke-linecap:round;stroke-linejoin:round;stroke-miterlimit:4;stroke-opacity:1;stroke-dasharray:none;stroke-dashoffset:0;fill-opacity:1"
         d="m 2062.1295,141.34375 c -31.5723,0 -61.2857,-12.21238 -61.2857,34.6875 l 0,52.09375 c -1e-4,22.61828 5.9309,43.09432 15.5937,58.25 l -72.4063,50.71875 c -26.7712,18.74541 -31.1479,58.34238 -9.8124,88.8125 21.3354,30.47012 60.0412,39.93291 86.8124,21.1875 l 81.25,-56.875 c 3.1967,-2.23835 6.0414,-4.81122 8.5938,-7.59375 l 53.6875,-38.70536 c 31.3565,-44.11101 20.5937,-104.13735 20.5937,-156.45982 0,-46.89988 -52.7142,-46.11607 -52.7142,-46.11607 z"
         id="rect2995-5-4"
         transform="matrix(1.0414013,0,0,0.70105264,-382.45711,-96.891249)"
         inkscape:connector-curvature="0"
         sodipodi:nodetypes="sssccsccccscs" />
      <path
         sodipodi:type="arc"
         style="fill:none;stroke:#000000;stroke-width:17.91426659;stroke-linecap:round;stroke-linejoin:round;stroke-miterlimit:4;stroke-opacity:1;stroke-dasharray:none;stroke-dashoffset:0"
         id="path3245"
         sodipodi:cx="1926.361"
         sodipodi:cy="112.12696"
         sodipodi:rx="158.59396"
         sodipodi:ry="158.59395"
         d="m 1941.5653,269.99041 c -87.1856,8.39711 -164.6707,-55.47357 -173.0678,-142.65915 -0.5962,-6.19052 -0.8278,-12.41076 -0.6935,-18.62848"
         transform="matrix(1.0414013,0,0,1.365314,-334.55271,-290.90357)"
         sodipodi:start="1.4747795"
         sodipodi:end="3.1631852"
         sodipodi:open="true" />
      <path
         style="fill:none;stroke:#000000;stroke-width:21.36113548;stroke-linecap:round;stroke-linejoin:round;stroke-miterlimit:4;stroke-opacity:1;stroke-dashoffset:0"
         d="m 418.92631,-11.825373 c 12.28808,0 22.18064,9.8925673 22.18064,22.180644 l 0,130.813329 c 0,12.28807 -9.89256,22.18064 -22.18064,22.18064 l -254.243,0 c -12.28807,0 -22.18064,-9.89257 -22.18064,-22.18064 l 0,-130.813329 c 0,-12.2880767 9.89257,-22.180644 22.18064,-22.180644"
         id="rect2993-6"
         inkscape:connector-curvature="0"
         sodipodi:nodetypes="cssssssc"
         inkscape:export-filename="/media/kokamoto/Storage/TeachingApp/givemefever_prototype/images/ParticipantInterventions/path4324-6.png"
         inkscape:export-xdpi="50.009998"
         inkscape:export-ydpi="50.009998" />
      <path
         style="fill:none;stroke:#000000;stroke-width:21.3611393;stroke-linecap:round;stroke-linejoin:round;stroke-miterlimit:4;stroke-opacity:1;stroke-dashoffset:0"
         d="m 169.43013,-14.529328 0,-72.108271 255.88721,0 0,72.108271"
         id="rect3015-0"
         inkscape:connector-curvature="0"
         sodipodi:nodetypes="cccc"
         inkscape:export-filename="/media/kokamoto/Storage/TeachingApp/givemefever_prototype/images/ParticipantInterventions/path4324-6.png"
         inkscape:export-xdpi="50.009998"
         inkscape:export-ydpi="50.009998" />
      <rect
         style="fill:#000000;stroke:#000000;stroke-width:21.36113739;stroke-linecap:round;stroke-linejoin:round;stroke-miterlimit:4;stroke-opacity:1;stroke-dasharray:none;stroke-dashoffset:0"
         id="rect2995-5-1"
         width="69.922668"
         height="76.114288"
         x="419.66364"
         y="137.57411"
         rx="26.711002"
         inkscape:export-filename="/media/kokamoto/Storage/TeachingApp/givemefever_prototype/images/ParticipantInterventions/path4324-6.png"
         inkscape:export-xdpi="50.009998"
         inkscape:export-ydpi="50.009998" />
      <rect
         style="fill:#000000;stroke:#000000;stroke-width:21.36113738999999967;stroke-linecap:round;stroke-linejoin:round;stroke-miterlimit:4;stroke-opacity:1;stroke-dasharray:none;stroke-dashoffset:0;fill-opacity:1"
         id="rect2995-5-5-5"
         width="69.922668"
         height="76.114288"
         x="252.5938"
         y="137.57411"
         rx="26.711002"
         inkscape:export-filename="/media/kokamoto/Storage/TeachingApp/givemefever_prototype/images/ParticipantInterventions/path4324-6.png"
         inkscape:export-xdpi="50.009998"
         inkscape:export-ydpi="50.009998" />
      <rect
         style="fill:#000000;stroke:#000000;stroke-width:21.36113738999999967;stroke-linecap:round;stroke-linejoin:round;stroke-miterlimit:4;stroke-opacity:1;stroke-dasharray:none;stroke-dashoffset:0;fill-opacity:1"
         id="rect2995-5-5-6-7"
         width="69.922668"
         height="76.114288"
         x="174.04231"
         y="121.97563"
         rx="26.711002"
         inkscape:export-filename="/media/kokamoto/Storage/TeachingApp/givemefever_prototype/images/ParticipantInterventions/path4324-6.png"
         inkscape:export-xdpi="50.009998"
         inkscape:export-ydpi="50.009998" />
      <rect
         style="fill:#000000;stroke:#000000;stroke-width:21.36113738999999967;stroke-linecap:round;stroke-linejoin:round;stroke-miterlimit:4;stroke-opacity:1;stroke-dasharray:none;stroke-dashoffset:0;fill-opacity:1"
         id="rect2995-5-5-6-1-3"
         width="69.922668"
         height="76.114288"
         x="97.276062"
         y="121.97563"
         rx="26.711002"
         inkscape:export-filename="/media/kokamoto/Storage/TeachingApp/givemefever_prototype/images/ParticipantInterventions/path4324-6.png"
         inkscape:export-xdpi="50.009998"
         inkscape:export-ydpi="50.009998" />
      <path
         style="fill:#000000;fill-opacity:1;stroke:#000000;stroke-width:21.36113739;stroke-linecap:round;stroke-linejoin:round;stroke-miterlimit:4;stroke-opacity:1;stroke-dasharray:none;stroke-dashoffset:0"
         d="m 410.80535,-11.630501 c -16.43972,0 -31.9115,-4.280763 -31.9115,12.1588839 l 0,18.2602331 c -6e-5,7.928305 3.08822,15.105695 8.11965,20.41816 l -37.70201,17.778255 c -13.93978,6.570759 -16.21873,20.450494 -5.10932,31.131034 11.10935,10.68054 31.26349,13.997495 45.20327,7.426755 L 431.71236,75.6067 c 1.66453,-0.7846 3.14577,-1.686455 4.4748,-2.6618 l 27.95512,-13.567214 c 16.32735,-15.46207 10.72315,-36.502885 10.72315,-54.8432872 0,-16.4396448 -27.44832,-16.1648998 -27.44832,-16.1648998 z"
         id="rect2995-5-4-9"
         inkscape:connector-curvature="0"
         sodipodi:nodetypes="sssccsccccscs"
         inkscape:export-filename="/media/kokamoto/Storage/TeachingApp/givemefever_prototype/images/ParticipantInterventions/path4324-6.png"
         inkscape:export-xdpi="50.009998"
         inkscape:export-ydpi="50.009998" />
      <path
         sodipodi:type="arc"
         style="fill:none;stroke:#000000;stroke-width:35.82853317;stroke-linecap:round;stroke-linejoin:round;stroke-miterlimit:4;stroke-opacity:1;stroke-dasharray:none;stroke-dashoffset:0"
         id="path3245-0"
         sodipodi:cx="1926.361"
         sodipodi:cy="112.12696"
         sodipodi:rx="158.59396"
         sodipodi:ry="158.59395"
         d="m 1941.5653,269.99041 c -87.1856,8.39711 -164.6707,-55.47357 -173.0678,-142.65915 -0.5962,-6.19052 -0.8278,-12.41076 -0.6935,-18.62848"
         transform="matrix(0.52070065,0,0,0.682657,-638.99462,-158.18149)"
         sodipodi:start="1.4747795"
         sodipodi:end="3.1631852"
         sodipodi:open="true"
         inkscape:export-filename="/media/kokamoto/Storage/TeachingApp/givemefever_prototype/images/ParticipantInterventions/path4324-6.png"
         inkscape:export-xdpi="50.009998"
         inkscape:export-ydpi="50.009998" />
      <path
         sodipodi:type="star"
         style="fill:none;stroke:none"
         id="path4058"
         sodipodi:sides="5"
         sodipodi:cx="447.49758"
         sodipodi:cy="-33.335008"
         sodipodi:r1="48.371438"
         sodipodi:r2="39.133315"
         sodipodi:arg1="-1.0697829"
         sodipodi:arg2="-0.44146441"
         inkscape:flatsided="true"
         inkscape:rounded="0.1"
         inkscape:randomized="0"
         d="m 470.7311,-75.761413 c 4.98752,2.731263 25.3523,45.824884 24.29595,51.412307 -1.05636,5.587423 -35.74776,38.272143 -41.38815,38.994097 -5.64039,0.721955 -47.44564,-22.1713983 -49.87523,-27.312629 -2.4296,-5.141231 6.42474,-51.974821 10.56356,-55.87423 4.13881,-3.89941 51.41635,-9.950808 56.40387,-7.219545 z"
         transform="matrix(1.0414013,0,0,0.70105264,-382.45711,-96.891249)"
         inkscape:transform-center-x="-1.7100878"
         inkscape:transform-center-y="2.4423402"
         inkscape:export-filename="/media/kokamoto/Storage/TeachingApp/givemefever_prototype/images/ParticipantInterventions/path4324-6.png"
         inkscape:export-xdpi="50.009998"
         inkscape:export-ydpi="50.009998" />
    </g>
    <path
       style="fill:#000000;fill-opacity:1;stroke:#000000;stroke-width:25;stroke-linecap:round;stroke-linejoin:round;stroke-miterlimit:4;stroke-opacity:1;stroke-dasharray:none;stroke-dashoffset:0"
       d="M 703.37927,159.01625 C 677.19315,146.7248 655.40939,97.386224 651.73231,42.039786 l -0.92538,-13.928571 55.92903,0 55.92902,0 0,40 0,40.000005 -12.04985,0 c -13.08663,0 -18.24554,1.35398 -23.49575,6.16658 -6.74651,6.1842 -8.6747,13.12167 -8.70874,31.33342 l -0.0314,16.78571 -3.92857,-0.014 c -2.16072,-0.008 -7.14286,-1.5227 -11.07143,-3.36673 l 0,5e-5 z"
       id="path4155"
       inkscape:connector-curvature="0"
       transform="translate(-258.59906,-8.2979956)"
       inkscape:export-filename="/media/kokamoto/Storage/TeachingApp/givemefever_prototype/images/ParticipantInterventions/Vaccination.png"
       inkscape:export-xdpi="50.009998"
       inkscape:export-ydpi="50.009998" />
    <rect
       style="fill:#999999;fill-opacity:1;stroke:#000000;stroke-width:14.99999905;stroke-linecap:round;stroke-linejoin:round;stroke-miterlimit:4;stroke-opacity:1;stroke-dasharray:none;stroke-dashoffset:0"
       id="rect2995-5-5-6-1-3-3"
       width="67.142868"
       height="54.02319"
       x="296.28528"
       y="-258.35785"
       rx="25.649097"
       transform="matrix(0,1,-1,0,0,0)"
       inkscape:export-filename="/media/kokamoto/Storage/TeachingApp/givemefever_prototype/images/ParticipantInterventions/Vaccination.png"
       inkscape:export-xdpi="50.009998"
       inkscape:export-ydpi="50.009998" />
    <rect
       style="fill:#999999;fill-opacity:1;stroke:#000000;stroke-width:14.99999905;stroke-linecap:round;stroke-linejoin:round;stroke-miterlimit:4;stroke-opacity:1;stroke-dasharray:none;stroke-dashoffset:0"
       id="rect2995-5-5-6-1-3-3-1"
       width="67.142868"
       height="54.02319"
       x="296.7041"
       y="-337.03201"
       rx="25.649097"
       transform="matrix(0,1,-1,0,0,0)"
       inkscape:export-filename="/media/kokamoto/Storage/TeachingApp/givemefever_prototype/images/ParticipantInterventions/Vaccination.png"
       inkscape:export-xdpi="50.009998"
       inkscape:export-ydpi="50.009998" />
    <rect
       style="fill:#999999;fill-opacity:1;stroke:#000000;stroke-width:14.99999905;stroke-linecap:round;stroke-linejoin:round;stroke-miterlimit:4;stroke-opacity:1;stroke-dasharray:none;stroke-dashoffset:0"
       id="rect2995-5-5-6-1-3-3-1-6"
       width="67.142868"
       height="54.02319"
       x="323.3541"
       y="-415.15424"
       rx="25.649097"
       transform="matrix(0,1,-1,0,0,0)"
       inkscape:export-filename="/media/kokamoto/Storage/TeachingApp/givemefever_prototype/images/ParticipantInterventions/Vaccination.png"
       inkscape:export-xdpi="50.009998"
       inkscape:export-ydpi="50.009998" />
    <rect
       style="fill:#999999;fill-opacity:1;stroke:#000000;stroke-width:14.99999905;stroke-linecap:round;stroke-linejoin:round;stroke-miterlimit:4;stroke-opacity:1;stroke-dasharray:none;stroke-dashoffset:0"
       id="rect2995-5-5-6-1-3-3-1-7"
       width="67.142868"
       height="54.02319"
       x="323.35413"
       y="-573.64557"
       rx="25.649097"
       transform="matrix(0,1,-1,0,0,0)"
       inkscape:export-filename="/media/kokamoto/Storage/TeachingApp/givemefever_prototype/images/ParticipantInterventions/Vaccination.png"
       inkscape:export-xdpi="50.009998"
       inkscape:export-ydpi="50.009998" />
    <rect
       style="fill:#999999;fill-opacity:1;stroke:#000000;stroke-width:14.99999905;stroke-linecap:round;stroke-linejoin:round;stroke-miterlimit:4;stroke-opacity:1;stroke-dasharray:none;stroke-dashoffset:0"
       id="rect2995-5-5-6-1-3-3-1-6-8"
       width="67.142868"
       height="54.02319"
       x="170.33472"
       y="453.02582"
       rx="25.649097"
       transform="matrix(0.76604444,-0.64278761,0.64278761,0.76604444,0,0)"
       inkscape:export-filename="/media/kokamoto/Storage/TeachingApp/givemefever_prototype/images/ParticipantInterventions/Vaccination.png"
       inkscape:export-xdpi="50.009998"
       inkscape:export-ydpi="50.009998" />
    <rect
       style="fill:#000000;fill-opacity:1;stroke:#000000;stroke-width:15;stroke-linecap:round;stroke-linejoin:round;stroke-miterlimit:4;stroke-opacity:1;stroke-dasharray:none;stroke-dashoffset:0"
       id="rect4242"
       width="93.267296"
       height="11.453878"
       x="421.95486"
       y="273.49167"
       inkscape:export-filename="/media/kokamoto/Storage/TeachingApp/givemefever_prototype/images/ParticipantInterventions/Vaccination.png"
       inkscape:export-xdpi="50.009998"
       inkscape:export-ydpi="50.009998" />
    <rect
       style="fill:#000000;fill-opacity:1;stroke:#000000;stroke-width:15;stroke-linecap:round;stroke-linejoin:round;stroke-miterlimit:4;stroke-opacity:1;stroke-dasharray:none;stroke-dashoffset:0"
       id="rect4242-1"
       width="190.2162"
       height="11.453878"
       x="274.4519"
       y="-475.13358"
       transform="matrix(0,1,-1,0,0,0)"
       inkscape:export-filename="/media/kokamoto/Storage/TeachingApp/givemefever_prototype/images/ParticipantInterventions/Vaccination.png"
       inkscape:export-xdpi="50.009998"
       inkscape:export-ydpi="50.009998" />
    <rect
       style="fill:none;stroke:#000000;stroke-width:15;stroke-linecap:round;stroke-linejoin:round;stroke-miterlimit:4;stroke-opacity:1;stroke-dasharray:none;stroke-dashoffset:0"
       id="rect4298"
       width="94.085426"
       height="250.34904"
       x="421.9549"
       y="357.07205"
       inkscape:export-filename="/media/kokamoto/Storage/TeachingApp/givemefever_prototype/images/ParticipantInterventions/Vaccination.png"
       inkscape:export-xdpi="50.009998"
       inkscape:export-ydpi="50.009998" />
    <rect
       style="fill:#000000;fill-opacity:1;stroke:#000000;stroke-width:15;stroke-linecap:round;stroke-linejoin:round;stroke-miterlimit:4;stroke-opacity:1;stroke-dasharray:none;stroke-dashoffset:0"
       id="rect4300"
       width="36.816036"
       height="35.179768"
       x="451.40768"
       y="606.47229"
       inkscape:export-filename="/media/kokamoto/Storage/TeachingApp/givemefever_prototype/images/ParticipantInterventions/Vaccination.png"
       inkscape:export-xdpi="50.009998"
       inkscape:export-ydpi="50.009998" />
    <rect
       style="fill:#000000;fill-opacity:1;stroke:#000000;stroke-width:15;stroke-linecap:round;stroke-linejoin:round;stroke-miterlimit:4;stroke-opacity:1;stroke-dasharray:none;stroke-dashoffset:0"
       id="rect4302"
       width="0.81813413"
       height="128.44707"
       x="469.77786"
       y="645.7428"
       inkscape:export-filename="/media/kokamoto/Storage/TeachingApp/givemefever_prototype/images/ParticipantInterventions/Vaccination.png"
       inkscape:export-xdpi="50.009998"
       inkscape:export-ydpi="50.009998" />
    <rect
       style="fill:#000000;fill-opacity:1;stroke:#000000;stroke-width:15;stroke-linecap:round;stroke-linejoin:round;stroke-miterlimit:4;stroke-opacity:1;stroke-dasharray:none;stroke-dashoffset:0"
       id="rect4242-15"
       width="93.267296"
       height="11.453878"
       x="422.31198"
       y="470.19226"
       inkscape:export-filename="/media/kokamoto/Storage/TeachingApp/givemefever_prototype/images/ParticipantInterventions/Vaccination.png"
       inkscape:export-xdpi="50.009998"
       inkscape:export-ydpi="50.009998" />
    <path
       style="fill:#008000;fill-opacity:1;stroke:#000000;stroke-width:15;stroke-linecap:round;stroke-linejoin:round;stroke-miterlimit:4;stroke-opacity:1;stroke-dasharray:none;stroke-dashoffset:0"
       d="m 427.71888,544.16363 0,-57.02053 41.6526,0 41.65258,0 0,56.9996 0,56.9996 -41.65258,0.0209 -41.6526,0.0209 0,-57.02052 0,-3e-5 z"
       id="path4322"
       inkscape:connector-curvature="0"
       inkscape:export-filename="/media/kokamoto/Storage/TeachingApp/givemefever_prototype/images/ParticipantInterventions/Vaccination.png"
       inkscape:export-xdpi="50.009998"
       inkscape:export-ydpi="50.009998" />
    <path
       sodipodi:type="arc"
       style="fill:#00ff00;fill-opacity:1;stroke:none"
       id="path4324"
       sodipodi:cx="-212.11969"
       sodipodi:cy="439.42581"
       sodipodi:rx="11.394859"
       sodipodi:ry="11.833123"
       d="m -200.72483,439.42581 a 11.394859,11.833123 0 1 1 -22.78972,0 11.394859,11.833123 0 1 1 22.78972,0 z"
       transform="matrix(0.66,0,0,0.66,596.21743,231.63702)"
       inkscape:export-xdpi="50.009998"
       inkscape:export-ydpi="50.009998"
       inkscape:export-filename="/media/kokamoto/Storage/TeachingApp/givemefever_prototype/images/ParticipantInterventions/Vaccination.png" />
    <path
       transform="matrix(0.66,0,0,0.66,624.56434,258.53766)"
       sodipodi:type="arc"
       style="fill:#00ff00;fill-opacity:1;stroke:none"
       id="path4324-8"
       sodipodi:cx="-212.11969"
       sodipodi:cy="439.42581"
       sodipodi:rx="11.394859"
       sodipodi:ry="11.833123"
       d="m -200.72483,439.42581 a 11.394859,11.833123 0 1 1 -22.78972,0 11.394859,11.833123 0 1 1 22.78972,0 z"
       inkscape:export-filename="/media/kokamoto/Storage/TeachingApp/givemefever_prototype/images/ParticipantInterventions/Vaccination.png"
       inkscape:export-xdpi="50.009998"
       inkscape:export-ydpi="50.009998" />
    <path
       transform="matrix(0.66,0,0,0.66,594.48191,279.94246)"
       sodipodi:type="arc"
       style="fill:#00ff00;fill-opacity:1;stroke:none"
       id="path4324-3"
       sodipodi:cx="-212.11969"
       sodipodi:cy="439.42581"
       sodipodi:rx="11.394859"
       sodipodi:ry="11.833123"
       d="m -200.72483,439.42581 a 11.394859,11.833123 0 1 1 -22.78972,0 11.394859,11.833123 0 1 1 22.78972,0 z"
       inkscape:export-filename="/media/kokamoto/Storage/TeachingApp/givemefever_prototype/images/ParticipantInterventions/Vaccination.png"
       inkscape:export-xdpi="50.009998"
       inkscape:export-ydpi="50.009998" />
    <path
       transform="matrix(0.66,0,0,0.66,632.66345,218.62059)"
       sodipodi:type="arc"
       style="fill:#00ff00;fill-opacity:1;stroke:none"
       id="path4324-6"
       sodipodi:cx="-212.11969"
       sodipodi:cy="439.42581"
       sodipodi:rx="11.394859"
       sodipodi:ry="11.833123"
       d="m -200.72483,439.42581 a 11.394859,11.833123 0 1 1 -22.78972,0 11.394859,11.833123 0 1 1 22.78972,0 z"
       inkscape:export-xdpi="50.009998"
       inkscape:export-ydpi="50.009998"
       inkscape:export-filename="/media/kokamoto/Storage/TeachingApp/givemefever_prototype/images/ParticipantInterventions/Vaccination.png" />
  </g>
</svg>
