<?xml version="1.0" encoding="UTF-8" standalone="no"?>
<!-- Created with Inkscape (http://www.inkscape.org/) -->

<svg
   xmlns:dc="http://purl.org/dc/elements/1.1/"
   xmlns:cc="http://creativecommons.org/ns#"
   xmlns:rdf="http://www.w3.org/1999/02/22-rdf-syntax-ns#"
   xmlns:svg="http://www.w3.org/2000/svg"
   xmlns="http://www.w3.org/2000/svg"
   xmlns:sodipodi="http://sodipodi.sourceforge.net/DTD/sodipodi-0.dtd"
   xmlns:inkscape="http://www.inkscape.org/namespaces/inkscape"
   width="1268.7516"
   height="959.64496"
   id="svg5059"
   version="1.1"
   inkscape:version="0.48.4 r9939"
   sodipodi:docname="PoxIntermedius.svg">
  <defs
     id="defs5061">
    <path
       transform="matrix(10,0,0,-10,260,260)"
       id="p"
       d="M 2.8117,-1.046 A 3,3 0 0 1 0.5,2.958 V 4.5119 A 10.5,10.5 0 0 1 2,25.3078 v 0.5583 A 15,15 0 0 0 14.7975,8.5433 15,15 0 0 0 23.4007,-11.201 l -0.4835,0.2792 A 10.5,10.5 0 0 1 4.1574,-1.8229 z m 3.4148,8.871 a 10,10 0 0 1 -12.453,0 9.5,9.5 0 0 0 -2.1756,2.7417 13.5,13.5 0 0 0 16.8042,0 A 10,10 0 0 0 6.2265,7.825 z"
       inkscape:connector-curvature="0" />
    <path
       transform="scale(10,-10) translate(26,-26)"
       id="p-5"
       d="M 2.8117,-1.046 A 3 3 0 0 1 .5,2.958 V 4.5119 A 10.5 10.5 0 0 1 2,25.3078 V 25.8661 A 15 15 0 0 0 14.7975,8.5433 15 15 0 0 0 23.4007,-11.201 L 22.9172,-10.9218 A 10.5 10.5 0 0 1 4.1574,-1.8229 z M 6.2265,7.825 A 10 10 0 0 1 -6.2265,7.825 9.5 9.5 0 0 0 -8.4021,10.5667 13.5 13.5 0 0 0 8.4021,10.5667 10 10 0 0 0 6.2265,7.825 z" />
  </defs>
  <sodipodi:namedview
     id="base"
     pagecolor="#ffffff"
     bordercolor="#666666"
     borderopacity="1.0"
     inkscape:pageopacity="0.0"
     inkscape:pageshadow="2"
     inkscape:zoom="0.24748737"
     inkscape:cx="1048.5743"
     inkscape:cy="108.1113"
     inkscape:document-units="px"
     inkscape:current-layer="g5665"
     showgrid="false"
     inkscape:window-width="1600"
     inkscape:window-height="872"
     inkscape:window-x="1600"
     inkscape:window-y="0"
     inkscape:window-maximized="1"
     fit-margin-top="0"
     fit-margin-left="0"
     fit-margin-right="0"
     fit-margin-bottom="0" />
  <metadata
     id="metadata5064">
    <rdf:RDF>
      <cc:Work
         rdf:about="">
        <dc:format>image/svg+xml</dc:format>
        <dc:type
           rdf:resource="http://purl.org/dc/dcmitype/StillImage" />
        <dc:title />
      </cc:Work>
    </rdf:RDF>
  </metadata>
  <g
     inkscape:label="Layer 1"
     inkscape:groupmode="layer"
     id="layer1"
     transform="translate(258.59906,8.2979956)">
    <rect
       style="fill:#000000;fill-opacity:0.36470588;stroke:none"
       id="rect5086"
       width="1268.7516"
       height="959.64496"
       x="-258.59906"
       y="-8.2979956"
       rx="100.00043" />
    <g
       id="g5665"
       transform="matrix(0.96024465,0,0,1.4264264,108.65333,129.91024)">
      <text
         xml:space="preserve"
         style="font-size:20px;font-style:normal;font-variant:normal;font-weight:normal;font-stretch:normal;line-height:125%;letter-spacing:0px;word-spacing:0px;fill:#000000;fill-opacity:1;stroke:none;font-family:Times;-inkscape-font-specification:Times"
         x="-336.65649"
         y="535.94757"
         id="text5670"
         sodipodi:linespacing="125%"><tspan
           sodipodi:role="line"
           x="-336.65649"
           y="535.94757"
           style="font-size:128.16682434px;font-style:italic;font-family:Ubuntu;-inkscape-font-specification:Ubuntu Italic"
           id="tspan6179">Poximus intermedius</tspan></text>
      <path
         sodipodi:type="arc"
         style="fill:#ffffff;fill-opacity:1;stroke:#000000;stroke-width:41.66666794;stroke-miterlimit:4;stroke-opacity:1;stroke-dasharray:none"
         id="path6183"
         sodipodi:cx="2062.7314"
         sodipodi:cy="197.98993"
         sodipodi:rx="244.45692"
         sodipodi:ry="224.25386"
         d="m 2307.1884,197.98993 a 244.45692,224.25386 0 1 1 -488.9139,0 244.45692,224.25386 0 1 1 488.9139,0 z"
         transform="matrix(1.2496816,0,0,0.84126317,-2305.8866,-17.009663)" />
      <text
         xml:space="preserve"
         style="font-size:20.50669289px;font-style:normal;font-variant:normal;font-weight:normal;font-stretch:normal;line-height:125%;letter-spacing:0px;word-spacing:0px;fill:#000000;fill-opacity:1;stroke:none;font-family:Times;-inkscape-font-specification:Times"
         x="32.264587"
         y="-148.65201"
         id="text6693"
         sodipodi:linespacing="125%"
         transform="matrix(0,0.82047674,-1.2188036,0,0,0)"><tspan
           sodipodi:role="line"
           id="tspan6695"
           x="32.264587"
           y="-148.65201"
           style="font-size:307.60037231px;fill:#000000;fill-opacity:1">:-(</tspan></text>
    </g>
    <rect
       style="fill:#ffffff;fill-opacity:1;stroke:#000000;stroke-width:15;stroke-miterlimit:4;stroke-opacity:1;stroke-dasharray:none;stroke-dashoffset:0"
       id="rect6697"
       width="74.840179"
       height="257.78287"
       x="-643.7226"
       y="-158.37975"
       rx="41.160179"
       transform="matrix(-0.86602541,-0.49999998,0.49999998,-0.86602541,0,0)" />
    <rect
       style="fill:#ff0000;fill-opacity:1;stroke:#000000;stroke-width:5.00108004;stroke-miterlimit:4;stroke-opacity:1;stroke-dasharray:none;stroke-dashoffset:0"
       id="rect6701"
       width="25.616182"
       height="193.08672"
       x="-621.70209"
       y="-148.03253"
       transform="matrix(-0.87321909,-0.48732784,0.51278009,-0.85851999,0,0)"
       rx="34.169285" />
  </g>
</svg>
