<?xml version="1.0" encoding="UTF-8" standalone="no"?>
<!-- Created with Inkscape (http://www.inkscape.org/) -->

<svg
   xmlns:dc="http://purl.org/dc/elements/1.1/"
   xmlns:cc="http://creativecommons.org/ns#"
   xmlns:rdf="http://www.w3.org/1999/02/22-rdf-syntax-ns#"
   xmlns:svg="http://www.w3.org/2000/svg"
   xmlns="http://www.w3.org/2000/svg"
   xmlns:sodipodi="http://sodipodi.sourceforge.net/DTD/sodipodi-0.dtd"
   xmlns:inkscape="http://www.inkscape.org/namespaces/inkscape"
   width="1268.7516"
   height="959.64496"
   id="svg5059"
   version="1.1"
   inkscape:version="0.48.4 r9939"
   sodipodi:docname="PoxNeoforma.svg"
   inkscape:export-filename="/home/kokamoto/Documents/GiveMeFever/givemefever_prototype/images/PathogenSpecies/PoxNeoforma.png"
   inkscape:export-xdpi="50"
   inkscape:export-ydpi="50">
  <defs
     id="defs5061">
    <path
       transform="matrix(10,0,0,-10,260,260)"
       id="p"
       d="M 2.8117,-1.046 A 3,3 0 0 1 0.5,2.958 V 4.5119 A 10.5,10.5 0 0 1 2,25.3078 v 0.5583 A 15,15 0 0 0 14.7975,8.5433 15,15 0 0 0 23.4007,-11.201 l -0.4835,0.2792 A 10.5,10.5 0 0 1 4.1574,-1.8229 z m 3.4148,8.871 a 10,10 0 0 1 -12.453,0 9.5,9.5 0 0 0 -2.1756,2.7417 13.5,13.5 0 0 0 16.8042,0 A 10,10 0 0 0 6.2265,7.825 z"
       inkscape:connector-curvature="0" />
    <path
       transform="scale(10,-10) translate(26,-26)"
       id="p-5"
       d="M 2.8117,-1.046 A 3 3 0 0 1 .5,2.958 V 4.5119 A 10.5 10.5 0 0 1 2,25.3078 V 25.8661 A 15 15 0 0 0 14.7975,8.5433 15 15 0 0 0 23.4007,-11.201 L 22.9172,-10.9218 A 10.5 10.5 0 0 1 4.1574,-1.8229 z M 6.2265,7.825 A 10 10 0 0 1 -6.2265,7.825 9.5 9.5 0 0 0 -8.4021,10.5667 13.5 13.5 0 0 0 8.4021,10.5667 10 10 0 0 0 6.2265,7.825 z" />
  </defs>
  <sodipodi:namedview
     id="base"
     pagecolor="#ffffff"
     bordercolor="#666666"
     borderopacity="1.0"
     inkscape:pageopacity="0.0"
     inkscape:pageshadow="2"
     inkscape:zoom="0.49497475"
     inkscape:cx="308.97596"
     inkscape:cy="507.08738"
     inkscape:document-units="px"
     inkscape:current-layer="layer1"
     showgrid="false"
     inkscape:window-width="1600"
     inkscape:window-height="824"
     inkscape:window-x="0"
     inkscape:window-y="24"
     inkscape:window-maximized="1"
     fit-margin-top="0"
     fit-margin-left="0"
     fit-margin-right="0"
     fit-margin-bottom="0"
     showguides="true"
     inkscape:guide-bbox="true" />
  <metadata
     id="metadata5064">
    <rdf:RDF>
      <cc:Work
         rdf:about="">
        <dc:format>image/svg+xml</dc:format>
        <dc:type
           rdf:resource="http://purl.org/dc/dcmitype/StillImage" />
        <dc:title></dc:title>
      </cc:Work>
    </rdf:RDF>
  </metadata>
  <g
     inkscape:label="Layer 1"
     inkscape:groupmode="layer"
     id="layer1"
     transform="translate(258.59906,8.2979956)">
    <rect
       style="fill:#000000;fill-opacity:0.36470588;stroke:none"
       id="rect5086"
       width="1268.7516"
       height="959.64496"
       x="-244.31334"
       y="-8.2979956"
       rx="100.00043" />
    <g
       id="g5665"
       transform="matrix(0.96024465,0,0,1.4264264,108.65333,129.91024)">
      <text
         xml:space="preserve"
         style="font-size:20px;font-style:normal;font-variant:normal;font-weight:normal;font-stretch:normal;line-height:125%;letter-spacing:0px;word-spacing:0px;fill:#000000;fill-opacity:1;stroke:none;font-family:Times;-inkscape-font-specification:Times"
         x="-310.22797"
         y="538.78027"
         id="text5670"
         sodipodi:linespacing="125%"><tspan
           sodipodi:role="line"
           id="tspan5672"
           x="-310.22797"
           y="538.78027"
           style="font-size:128.16682434px;font-style:italic;font-family:Ubuntu;-inkscape-font-specification:Ubuntu Italic">Poximus neoforma</tspan></text>
      <g
         transform="matrix(3.5147295,0,0,2.3660527,5.1113466,-2073.8583)"
         id="layer1-8"
         inkscape:label="Layer 1">
        <path
           sodipodi:nodetypes="ccccccccccsscsccscsss"
           inkscape:connector-curvature="0"
           d="m 94.502066,1004.9996 -9.361111,0 m 0.22286,-11.81271 5.57805,0 m 3.560201,-11.8128 -9.361111,0 0,47.25111 9.361111,0 m -9.138251,-11.8128 5.57805,0 m 24.908725,21.606 c 5.97379,0 4.80592,-5.3233 3.3521,-9.4025 l -34.559137,-96.96851 0,-9.74146 c 0,-1.65672 3.367601,-4.20758 3.367601,-6 l -26.02231,0 c 0,1.79242 3.367601,4.34329 3.367601,6 l 0,9.74146 -34.559135,96.96851 c -1.453816,4.0792 -2.62169,9.4025 3.352104,9.4025 z"
           style="fill:none;stroke:#000000;stroke-width:3.75;stroke-linecap:butt;stroke-linejoin:miter;stroke-miterlimit:4;stroke-opacity:1;stroke-dasharray:none"
           id="path4321-4" />
        <path
           sodipodi:nodetypes="ssccsss"
           inkscape:connector-curvature="0"
           d="m 115.85059,1038.4184 c 5.97379,0 4.80592,-5.3233 3.3521,-9.4025 l -8.19756,-23.0013 c -37.567966,-17.93628 -37.859115,8.288 -71.029126,-2.753 l -9.178694,25.7543 c -1.453816,4.0792 -2.62169,9.4025 3.352104,9.4025 z"
           style="fill:none;stroke:#000000;stroke-width:3.75;stroke-linecap:butt;stroke-linejoin:miter;stroke-miterlimit:4;stroke-opacity:1;stroke-dasharray:none"
           id="path4321-4-5" />
        <circle
           r="5.0432577"
           cy="1021.7875"
           cx="58.312668"
           id="path4357"
           style="fill:none;stroke:#000000;stroke-width:3.75;stroke-linecap:round;stroke-miterlimit:4;stroke-opacity:1;stroke-dasharray:none"
           sodipodi:cx="58.312668"
           sodipodi:cy="1021.7875"
           sodipodi:rx="5.0432577"
           sodipodi:ry="5.0432577"
           d="m 63.355926,1021.7875 c 0,2.7853 -2.257944,5.0432 -5.043258,5.0432 -2.785314,0 -5.043258,-2.2579 -5.043258,-5.0432 0,-2.7853 2.257944,-5.0433 5.043258,-5.0433 2.785314,0 5.043258,2.258 5.043258,5.0433 z" />
        <circle
           r="3.1520362"
           cy="964.1051"
           cx="83.213753"
           id="path4361"
           style="fill:none;stroke:#000000;stroke-width:3.75;stroke-linecap:round;stroke-miterlimit:4;stroke-opacity:1;stroke-dasharray:none"
           sodipodi:cx="83.213753"
           sodipodi:cy="964.1051"
           sodipodi:rx="3.1520362"
           sodipodi:ry="3.1520362"
           d="m 86.365789,964.1051 c 0,1.74082 -1.411215,3.15204 -3.152036,3.15204 -1.740822,0 -3.152036,-1.41122 -3.152036,-3.15204 0,-1.74082 1.411214,-3.15203 3.152036,-3.15203 1.740821,0 3.152036,1.41121 3.152036,3.15203 z" />
        <circle
           r="3.1520362"
           cy="945.50812"
           cx="72.496834"
           id="path4361-9"
           style="fill:none;stroke:#000000;stroke-width:3.75;stroke-linecap:round;stroke-miterlimit:4;stroke-opacity:1;stroke-dasharray:none"
           sodipodi:cx="72.496834"
           sodipodi:cy="945.50812"
           sodipodi:rx="3.1520362"
           sodipodi:ry="3.1520362"
           d="m 75.64887,945.50812 c 0,1.74082 -1.411215,3.15203 -3.152036,3.15203 -1.740822,0 -3.152036,-1.41121 -3.152036,-3.15203 0,-1.74082 1.411214,-3.15204 3.152036,-3.15204 1.740821,0 3.152036,1.41122 3.152036,3.15204 z" />
        <circle
           r="5.0432577"
           cy="976.81506"
           cx="63.671131"
           id="path4357-1"
           style="fill:none;stroke:#000000;stroke-width:3.75;stroke-linecap:round;stroke-miterlimit:4;stroke-opacity:1;stroke-dasharray:none"
           sodipodi:cx="63.671131"
           sodipodi:cy="976.81506"
           sodipodi:rx="5.0432577"
           sodipodi:ry="5.0432577"
           d="m 68.714389,976.81506 c 0,2.78532 -2.257944,5.04326 -5.043258,5.04326 -2.785314,0 -5.043258,-2.25794 -5.043258,-5.04326 0,-2.78531 2.257944,-5.04325 5.043258,-5.04325 2.785314,0 5.043258,2.25794 5.043258,5.04325 z" />
        <circle
           r="3.1520362"
           cy="1017.574"
           cx="101.38679"
           id="path4361-1"
           style="fill:none;stroke:#000000;stroke-width:3.75;stroke-linecap:round;stroke-miterlimit:4;stroke-opacity:1;stroke-dasharray:none"
           sodipodi:cx="101.38679"
           sodipodi:cy="1017.574"
           sodipodi:rx="3.1520362"
           sodipodi:ry="3.1520362"
           d="m 104.53882,1017.574 c 0,1.7408 -1.41121,3.152 -3.15203,3.152 -1.740824,0 -3.152039,-1.4112 -3.152039,-3.152 0,-1.7408 1.411215,-3.1521 3.152039,-3.1521 1.74082,0 3.15203,1.4113 3.15203,3.1521 z" />
        <circle
           transform="translate(17.613929,-79.004772)"
           r="5.0432577"
           cy="976.81506"
           cx="63.671131"
           id="path4357-1-6"
           style="fill:none;stroke:#000000;stroke-width:3.75;stroke-linecap:round;stroke-miterlimit:4;stroke-opacity:1;stroke-dasharray:none"
           sodipodi:cx="63.671131"
           sodipodi:cy="976.81506"
           sodipodi:rx="5.0432577"
           sodipodi:ry="5.0432577"
           d="m 68.714389,976.81506 c 0,2.78532 -2.257944,5.04326 -5.043258,5.04326 -2.785314,0 -5.043258,-2.25794 -5.043258,-5.04326 0,-2.78531 2.257944,-5.04325 5.043258,-5.04325 2.785314,0 5.043258,2.25794 5.043258,5.04325 z" />
        <circle
           transform="translate(-11.564475,-68.05053)"
           r="3.1520362"
           cy="945.50812"
           cx="72.496834"
           id="path4361-9-3"
           style="fill:none;stroke:#000000;stroke-width:3.75;stroke-linecap:round;stroke-miterlimit:4;stroke-opacity:1;stroke-dasharray:none"
           sodipodi:cx="72.496834"
           sodipodi:cy="945.50812"
           sodipodi:rx="3.1520362"
           sodipodi:ry="3.1520362"
           d="m 75.64887,945.50812 c 0,1.74082 -1.411215,3.15203 -3.152036,3.15203 -1.740822,0 -3.152036,-1.41121 -3.152036,-3.15203 0,-1.74082 1.411214,-3.15204 3.152036,-3.15204 1.740821,0 3.152036,1.41122 3.152036,3.15204 z" />
        <circle
           transform="translate(-4.9217366,-89.04195)"
           r="3.1520362"
           cy="964.1051"
           cx="83.213753"
           id="path4361-2"
           style="fill:none;stroke:#000000;stroke-width:3.75;stroke-linecap:round;stroke-miterlimit:4;stroke-opacity:1;stroke-dasharray:none"
           sodipodi:cx="83.213753"
           sodipodi:cy="964.1051"
           sodipodi:rx="3.1520362"
           sodipodi:ry="3.1520362"
           d="m 86.365789,964.1051 c 0,1.74082 -1.411215,3.15204 -3.152036,3.15204 -1.740822,0 -3.152036,-1.41122 -3.152036,-3.15204 0,-1.74082 1.411214,-3.15203 3.152036,-3.15203 1.740821,0 3.152036,1.41121 3.152036,3.15203 z" />
        <circle
           transform="translate(12.197433,-167.07702)"
           r="5.0432577"
           cy="1021.7875"
           cx="58.312668"
           id="path4357-9"
           style="fill:none;stroke:#000000;stroke-width:3.75;stroke-linecap:round;stroke-miterlimit:4;stroke-opacity:1;stroke-dasharray:none"
           sodipodi:cx="58.312668"
           sodipodi:cy="1021.7875"
           sodipodi:rx="5.0432577"
           sodipodi:ry="5.0432577"
           d="m 63.355926,1021.7875 c 0,2.7853 -2.257944,5.0432 -5.043258,5.0432 -2.785314,0 -5.043258,-2.2579 -5.043258,-5.0432 0,-2.7853 2.257944,-5.0433 5.043258,-5.0433 2.785314,0 5.043258,2.258 5.043258,5.0433 z" />
      </g>
    </g>
  </g>
</svg>
